<svg width="156" height="127" viewBox="0 0 156 127" fill="none" xmlns="http://www.w3.org/2000/svg">
<path d="M149.442 0.428848L149.091 0.50682L148.584 0.272903L148.116 0.428848L147.647 0.272903L147.218 0.428848L146.672 0.272903L146.204 0.50682L145.696 0.272903L145.228 0.428848L144.76 0.272903L144.331 0.428848L143.785 0.272903L143.316 0.50682L142.809 0.272903L142.341 0.428848L141.873 0.272903L141.443 0.428848L140.897 0.272903L140.429 0.50682L139.922 0.272903L139.453 0.428848L138.985 0.272903L138.556 0.428848L138.01 0.272903L137.541 0.50682L137.034 0.272903L136.566 0.428848L136.098 0.272903L135.669 0.428848L135.122 0.272903L134.654 0.50682L134.147 0.272903L133.679 0.428848L133.21 0.272903L132.781 0.428848L132.235 0.272903L131.767 0.50682L131.259 0.272903L130.791 0.428848L130.323 0.272903L129.894 0.428848L129.348 0.272903L128.879 0.50682L128.372 0.272903L127.904 0.428848L127.436 0.272903L127.006 0.428848L126.46 0.272903L125.992 0.50682L125.485 0.272903L125.016 0.428848L124.548 0.272903L124.119 0.428848L123.573 0.272903L123.105 0.50682L122.597 0.272903L122.129 0.428848L121.661 0.272903L121.232 0.428848L120.685 0.272903L120.217 0.50682L119.71 0.272903L119.242 0.428848L118.773 0.272903L118.344 0.428848L117.798 0.272903L117.33 0.50682L116.822 0.272903L116.354 0.428848L115.886 0.272903L115.457 0.428848L114.911 0.272903L114.442 0.50682L113.935 0.272903L113.467 0.428848L112.999 0.272903L112.569 0.428848L112.023 0.272903L111.555 0.50682L111.048 0.272903L110.579 0.428848L110.111 0.272903L109.682 0.428848L109.136 0.272903L108.668 0.50682L108.16 0.272903L107.692 0.428848L107.224 0.272903L106.795 0.428848L106.248 0.272903L105.78 0.50682L105.273 0.272903L104.805 0.428848L104.336 0.272903L103.907 0.428848L103.361 0.272903L102.893 0.50682L102.385 0.272903L101.917 0.428848L101.449 0.272903L101.02 0.428848L100.474 0.272903L100.005 0.50682L99.4981 0.272903L99.0299 0.428848L98.5616 0.272903L98.1324 0.428848L97.5862 0.272903L97.118 0.50682L96.6107 0.272903L96.1425 0.428848L95.6743 0.272903L95.245 0.428848L94.6988 0.272903L94.2306 0.50682L93.7233 0.272903L93.2551 0.428848L92.7869 0.272903L92.3577 0.428848L91.8114 0.272903L91.3432 0.50682L90.8359 0.272903L90.3677 0.428848L89.8995 0.272903L89.4703 0.428848L88.924 0.272903L88.4558 0.50682L87.9485 0.272903L87.4803 0.428848L87.0121 0.272903L86.5829 0.428848L86.0366 0.272903L85.5684 0.50682L85.0611 0.272903L84.5929 0.428848L84.1247 0.272903L83.6955 0.428848L83.1492 0.272903L82.681 0.50682L82.1737 0.272903L81.7055 0.428848L81.2373 0.272903L80.8081 0.428848L80.2618 0.272903L79.7936 0.50682L79.2863 0.272903L78.8181 0.428848L78.3499 0.272903L77.9207 0.428848L77.3744 0.272903L76.9062 0.50682L76.3989 0.272903L75.9307 0.428848L75.4235 0.233917L74.9552 0.389861L74.409 0.233917L73.9408 0.467834L73.4335 0.233917L72.9653 0.389861L72.497 0.233917L72.0678 0.389861L71.5216 0.233917L71.0534 0.467834L70.5461 0.233917L70.0779 0.389861L69.6097 0.233917L69.1805 0.389861L68.6342 0.233917L68.166 0.467834L67.6587 0.233917L67.1905 0.389861L66.7223 0.233917L66.2931 0.389861L65.7468 0.233917L65.2786 0.467834L64.7713 0.233917L64.3031 0.389861L63.8349 0.233917L63.4057 0.389861L62.8594 0.233917L62.3912 0.467834L61.8839 0.233917L61.4157 0.389861L60.9475 0.233917L60.5183 0.389861L59.972 0.233917L59.5038 0.467834L58.9965 0.233917L58.5283 0.389861L58.0601 0.233917L57.6309 0.389861L57.0846 0.233917L56.6164 0.467834L56.1091 0.233917L55.6409 0.389861L55.1727 0.233917L54.7435 0.389861L54.1972 0.233917L53.729 0.467834L53.2217 0.233917L52.7535 0.389861L52.2853 0.233917L51.8561 0.389861L51.3098 0.233917L50.8416 0.467834L50.3343 0.233917L49.8661 0.389861L49.3979 0.233917L48.9687 0.389861L48.4224 0.233917L47.9542 0.467834L47.4469 0.233917L46.9787 0.389861L46.5105 0.233917L46.0813 0.389861L45.535 0.233917L45.0668 0.467834L44.5596 0.233917L44.0913 0.389861L43.6231 0.233917L43.1939 0.389861L42.6476 0.233917L42.1794 0.467834L41.6722 0.233917L41.2039 0.389861L40.7357 0.233917L40.3065 0.389861L39.7602 0.233917L39.292 0.467834L38.7848 0.233917L38.3165 0.389861L37.8483 0.233917L37.4191 0.389861L36.8728 0.233917L36.4046 0.467834L35.8974 0.233917L35.4291 0.389861L34.9609 0.233917L34.5317 0.389861L33.9854 0.233917L33.5172 0.467834L33.01 0.233917L32.5417 0.389861L32.0735 0.233917L31.6443 0.389861L31.098 0.233917L30.6298 0.467834L30.1226 0.233917L29.6543 0.389861L29.1861 0.233917L28.7569 0.389861L28.2106 0.233917L27.7424 0.467834L27.2352 0.233917L26.767 0.389861L26.2987 0.233917L25.8695 0.389861L25.3233 0.233917L24.855 0.467834L24.3478 0.233917L23.8796 0.389861L23.4113 0.233917L22.9821 0.389861L22.4359 0.233917L21.9676 0.467834L21.4604 0.233917L20.9922 0.389861L20.5239 0.233917L20.0947 0.389861L19.5485 0.233917L19.0802 0.467834L18.573 0.233917L18.1048 0.389861L17.6365 0.233917L17.2073 0.389861L16.6611 0.233917L16.1928 0.467834L15.6856 0.233917L15.2174 0.389861L14.7491 0.233917L14.3199 0.389861L13.7737 0.233917L13.3054 0.467834L12.7982 0.233917L12.33 0.389861L11.8618 0.233917L11.4325 0.389861L10.8863 0.233917L10.4181 0.467834L9.91081 0.233917L9.44258 0.389861L8.97435 0.233917L8.54515 0.389861L7.99888 0.233917L7.53066 0.467834L7.02341 0.233917L6.55519 0.389861L6.08696 0.233917L5.65775 0.389861L5.11149 0.233917L4.64326 0.467834L4.13602 0.233917L3.66779 0.389861L3.19957 0.233917L2.77036 0.389861L2.22409 0.233917L1.75587 0.467834L1.32666 0.311889C1.59979 93.4498 1.71685 94.0736 2.30213 124.327L153.188 123.781C152.798 92.1243 150.535 0.116958 150.535 0.116958L150.301 0L149.442 0.428848Z" fill="url(#paint0_linear_6111_86858)"/>
<path d="M148.311 1.63745H148.233L147.764 1.83238L147.257 1.63745L146.789 1.7934L146.321 1.63745L145.892 1.7934L145.345 1.63745L144.877 1.87137L144.37 1.67644L143.902 1.83238L143.433 1.67644L143.004 1.83238L142.458 1.67644L141.99 1.91035L141.482 1.71542L141.014 1.87137L140.546 1.71542L140.117 1.87137L139.57 1.71542L139.102 1.94934L138.595 1.75441L138.127 1.91035L137.659 1.75441L137.229 1.91035L136.683 1.75441L136.215 1.98833L135.708 1.7934L135.239 1.94934L134.771 1.7934L134.342 1.94934L133.796 1.7934L133.327 2.02731L132.82 1.83238L132.352 1.98833L131.884 1.83238L131.455 1.98833L130.908 1.83238L130.44 2.0663L129.933 1.87137L129.465 2.02731L128.996 1.87137L128.567 2.02731L128.021 1.87137L127.553 2.10529L127.045 1.91035L126.577 2.0663L126.109 1.91035L125.68 2.0663L125.133 1.91035L124.665 2.14427L124.158 1.94934L123.69 2.10529L123.222 1.94934L122.792 2.10529L122.246 1.94934L121.778 2.18326L121.271 1.98833L120.802 2.14427L120.334 1.98833L119.905 2.14427L119.359 1.98833L118.89 2.22224L118.383 2.02731L117.915 2.18326L117.447 2.02731L117.018 2.18326L116.471 2.02731L116.003 2.26123L115.496 2.0663L115.028 2.22224L114.559 2.0663L114.13 2.22224L113.584 2.0663L113.116 2.30022L112.608 2.10529L112.14 2.26123L111.672 2.10529L111.243 2.26123L110.697 2.10529L110.228 2.3392L109.721 2.14427L109.253 2.30022L108.785 2.14427L108.355 2.30022L107.809 2.14427L107.341 2.37819L106.834 2.18326L106.365 2.3392L105.897 2.18326L105.468 2.3392L104.922 2.18326L104.453 2.41717L103.946 2.22224L103.478 2.37819L103.01 2.22224L102.581 2.37819L102.034 2.22224L101.566 2.45616L101.059 2.26123L100.591 2.41717L100.122 2.26123L99.6932 2.41717L99.1469 2.26123L98.6787 2.49515L98.1714 2.30022L97.7032 2.45616L97.235 2.30022L96.8058 2.45616L96.2595 2.30022L95.7913 2.53413L95.284 2.3392L94.8158 2.49515L94.3476 2.3392L93.9184 2.49515L93.3721 2.3392L92.9039 2.57312L92.3967 2.37819L91.9284 2.53413L91.4602 2.37819L91.031 2.53413L90.4847 2.37819L90.0165 2.61211L89.5093 2.41717L89.041 2.57312L88.5728 2.41717L88.1436 2.57312L87.5973 2.41717L87.1291 2.65109L86.6219 2.45616L86.1536 2.61211L85.6854 2.45616L85.2562 2.61211L84.7099 2.45616L84.2417 2.69008L83.7345 2.49515L83.2663 2.65109L82.798 2.49515L82.3688 2.65109L81.8226 2.49515L81.3543 2.72906L80.8471 2.53413L80.3788 2.69008L79.9106 2.53413L79.4814 2.69008L78.9352 2.53413L78.4669 2.76805L77.9597 2.57312L77.4915 2.72906L77.0232 2.57312L76.594 2.72906L76.0478 2.57312L75.5795 2.80704L75.0723 2.61211L74.6041 2.76805L74.0968 2.57312L73.6286 2.72906L73.0823 2.57312L72.6141 2.80704L72.1068 2.61211L71.6386 2.76805L71.1704 2.61211L70.7412 2.76805L70.1949 2.61211L69.7267 2.84602L69.2195 2.65109L68.7512 2.80704L68.283 2.65109L67.8538 2.80704L67.3075 2.65109L66.8393 2.88501L66.3321 2.69008L65.8638 2.84602L65.3956 2.69008L64.9664 2.84602L64.4201 2.69008L63.9519 2.92399L63.4447 2.72906L62.9764 2.88501L62.5082 2.72906L62.079 2.88501L61.5327 2.72906L61.0645 2.96298L60.5573 2.76805L60.089 2.92399L59.6208 2.76805L59.1916 2.92399L58.6453 2.76805L58.1771 3.00197L57.6699 2.80704L57.2017 2.96298L56.7334 2.80704L56.3042 2.96298L55.7579 2.80704L55.2897 3.04095L54.7825 2.84602L54.3143 3.00197L53.846 2.84602L53.4168 3.00197L52.8706 2.84602L52.4023 3.07994L51.8951 2.88501L51.4269 3.04095L50.9586 2.88501L50.5294 3.04095L49.9832 2.88501L49.5149 3.11892L49.0077 2.92399L48.5395 3.07994L48.0712 2.92399L47.642 3.07994L47.0958 2.92399L46.6275 3.15791L46.1203 2.96298L45.6521 3.11892L45.1838 2.96298L44.7546 3.11892L44.2084 2.96298L43.7401 3.1969L43.2329 3.00197L42.7647 3.15791L42.2964 3.00197L41.8672 3.15791L41.321 3.00197L40.8527 3.23588L40.3455 3.04095L39.8773 3.1969L39.409 3.04095L38.9798 3.1969L38.4336 3.04095L37.9653 3.27487L37.4581 3.07994L36.9899 3.23588L36.5217 3.07994L36.0924 3.23588L35.5462 3.07994L35.078 3.31386L34.5707 3.11892L34.1025 3.27487L33.6343 3.11892L33.2051 3.27487L32.6588 3.11892L32.1906 3.35284L31.6833 3.15791L31.2151 3.31386L30.7469 3.15791L30.3177 3.31386L29.7714 3.15791L29.3032 3.39183L28.7959 3.1969L28.3277 3.35284L27.8595 3.1969L27.4303 3.35284L26.884 3.1969L26.4158 3.43081L25.9085 3.23588L25.4403 3.39183L24.9721 3.23588L24.5429 3.39183L23.9966 3.23588L23.5284 3.4698L23.0211 3.27487L22.5529 3.43081L22.0847 3.27487L21.6555 3.43081L21.1092 3.27487L20.641 3.50879L20.1337 3.31386L19.6655 3.4698L19.1973 3.31386L18.7681 3.4698L18.2218 3.31386L17.7536 3.54777L17.2463 3.35284L16.7781 3.50879L16.3099 3.35284L15.8807 3.50879L15.3344 3.35284L14.8662 3.58676L14.3589 3.39183L13.8907 3.54777L13.4225 3.39183L12.9933 3.54777L12.447 3.39183L11.9788 3.62574L11.4715 3.43081L11.0033 3.58676L10.5351 3.43081L10.1059 3.58676L9.55962 3.43081L9.09139 3.66473L8.58415 3.4698L8.11592 3.62574L7.6477 3.4698L7.21849 3.62574L6.67222 3.4698L6.204 3.70372L5.69675 3.50879L5.22853 3.66473L4.7603 3.50879L4.33109 3.66473L3.78483 3.50879L3.3166 3.7427L2.80936 3.54777L2.34113 3.70372L1.8729 3.54777L1.4437 3.70372L0.897433 3.54777L0.429207 3.78169L0 3.62574C1.20958 96.1789 1.4437 96.7247 2.34113 126.783L153.227 126.237C152.525 94.7364 151.393 76.9977 149.169 3.1969L148.311 1.63745Z" fill="url(#paint1_linear_6111_86858)"/>
<path d="M150.34 2.76804L150.066 2.88499L149.559 2.69006L149.091 2.84601L148.623 2.69006L148.194 2.84601L147.686 2.69006L147.218 2.92398L146.711 2.72905L146.243 2.88499L145.774 2.72905L145.345 2.88499L144.838 2.72905L144.37 2.96297L143.862 2.76804L143.394 2.92398L142.926 2.76804L142.497 2.92398L141.99 2.76804L141.521 3.00195L141.014 2.80702L140.546 2.96297L140.078 2.80702L139.648 2.96297L139.102 2.80702L138.634 3.04094L138.127 2.84601L137.658 3.00195L137.19 2.84601L136.761 3.00195L136.215 2.84601L135.747 3.07993L135.239 2.88499L134.771 3.04094L134.303 2.88499L133.874 3.04094L133.327 2.88499L132.859 3.11891L132.352 2.92398L131.884 3.07993L131.415 2.92398L130.986 3.07993L130.44 2.92398L129.972 3.1579L129.464 2.96297L128.996 3.11891L128.528 2.96297L128.099 3.11891L127.553 2.96297L127.084 3.19688L126.577 3.00195L126.109 3.1579L125.641 3.00195L125.211 3.1579L124.665 3.00195L124.197 3.23587L123.69 3.04094L123.221 3.19688L122.753 3.04094L122.324 3.19688L121.817 3.04094L121.349 3.27486L120.841 3.07993L120.373 3.23587L119.905 3.07993L119.476 3.23587L118.968 3.07993L118.5 3.31384L117.993 3.11891L117.525 3.27486L117.056 3.11891L116.627 3.27486L116.12 3.11891L115.652 3.35283L115.145 3.1579L114.676 3.31384L114.208 3.1579L113.779 3.31384L113.272 3.1579L112.803 3.39181L112.296 3.19688L111.828 3.35283L111.36 3.19688L110.931 3.35283L110.423 3.19688L109.955 3.4308L109.448 3.23587L108.98 3.39181L108.511 3.23587L108.082 3.39181L107.575 3.23587L107.107 3.46979L106.599 3.27486L106.131 3.4308L105.663 3.27486L105.234 3.4308L104.727 3.27486L104.258 3.50877L103.751 3.31384L103.283 3.46979L102.815 3.31384L102.385 3.46979L101.878 3.31384L101.41 3.54776L100.903 3.35283L100.434 3.50877L99.9662 3.35283L99.537 3.50877L99.0298 3.35283L98.5615 3.58674L98.0543 3.39181L97.5861 3.54776L97.1179 3.39181L96.6886 3.54776L96.1814 3.39181L95.7132 3.62573L95.2059 3.4308L94.7377 3.58674L94.2695 3.4308L93.8403 3.58674L93.333 3.4308L92.8648 3.66472L92.3575 3.46979L91.8893 3.62573L91.4211 3.46979L90.9919 3.62573L90.4846 3.46979L90.0164 3.7037L89.5092 3.50877L89.0409 3.66472L88.5727 3.50877L88.1435 3.66472L87.6363 3.50877L87.168 3.74269L86.6608 3.54776L86.1926 3.7037L85.7243 3.54776L85.2951 3.7037L84.7879 3.54776L84.3197 3.78168L83.8124 3.58674L83.3442 3.74269L82.876 3.58674L82.4468 3.74269L81.9005 3.58674L81.4323 3.82066L80.925 3.62573L80.4568 3.78168L79.9886 3.62573L79.5594 3.78168L79.0131 3.62573L78.5449 3.85965L78.0376 3.66472L77.5694 3.82066L77.0621 3.62573L76.5939 3.78168L76.0867 3.62573L75.6185 3.85965L75.1112 3.66472L74.643 3.82066L74.1748 3.66472L73.7456 3.82066L73.1993 3.66472L72.7311 3.89863L72.2238 3.7037L71.7556 3.85965L71.2874 3.7037L70.8582 3.85965L70.3509 3.7037L69.8827 3.93762L69.3754 3.74269L68.9072 3.89863L68.439 3.74269L68.0098 3.89863L67.5025 3.74269L67.0343 3.97661L66.5271 3.78168L66.0588 3.93762L65.5906 3.78168L65.1614 3.93762L64.6542 3.78168L64.1859 4.01559L63.6787 3.82066L63.2105 3.97661L62.7422 3.82066L62.313 3.97661L61.8058 3.82066L61.3376 4.05458L60.8303 3.85965L60.3621 4.01559L59.8939 3.85965L59.4647 4.01559L58.9184 3.85965L58.4502 4.09356L57.9429 3.89863L57.4747 4.05458L57.0065 3.89863L56.5773 4.05458L56.07 3.89863L55.6018 4.13255L55.0945 3.93762L54.6263 4.09356L54.1581 3.93762L53.7289 4.09356L53.2216 3.93762L52.7534 4.17154L52.2462 3.97661L51.7779 4.13255L51.3097 3.97661L50.8805 4.13255L50.3342 3.97661L49.866 4.21052L49.3588 4.01559L48.8905 4.17154L48.4223 4.01559L47.9931 4.17154L47.4468 4.01559L46.9786 4.24951L46.4714 4.05458L46.0031 4.21052L45.5349 4.05458L45.1057 4.21052L44.5594 4.05458L44.0912 4.2885L43.584 4.09356L43.1157 4.24951L42.6475 4.09356L42.2183 4.24951L41.6721 4.09356L41.2038 4.32748L40.6966 4.13255L40.2284 4.2885L39.7601 4.13255L39.3309 4.2885L38.7847 4.13255L38.3164 4.36647L37.8092 4.17154L37.341 4.32748L36.8727 4.17154L36.4435 4.32748L35.8973 4.17154L35.429 4.40545L34.9218 4.21052L34.4536 4.36647L33.9853 4.21052L33.5561 4.36647L33.0489 4.21052L32.5807 4.44444L32.0734 4.24951L31.6052 4.40545L31.137 4.24951L30.7077 4.40545L30.2005 4.24951L29.7323 4.48343L29.225 4.2885L28.7568 4.44444L28.2886 4.2885L27.8594 4.44444L27.3521 4.2885L26.8839 4.52241L26.3767 4.32748L25.9084 4.48343L25.4402 4.32748L25.011 4.48343L24.5037 4.32748L24.0355 4.5614L23.5283 4.36647L23.0601 4.52241L22.5918 4.36647L22.1626 4.52241L21.6554 4.36647L21.1871 4.60038L20.6799 4.40545L20.2117 4.5614L19.7435 4.40545L19.3142 4.5614L18.807 4.40545L18.3388 4.63937L17.8315 4.44444L17.3633 4.60038L16.8951 4.44444L16.4659 4.60038L15.9586 4.44444L15.4904 4.67836L14.9831 4.48343L14.5149 4.63937L14.0467 4.48343L13.6175 4.63937L13.1102 4.48343L12.642 4.71734L12.1348 4.52241L11.6665 4.67836L11.1983 4.52241L10.7691 4.67836L10.2619 4.52241L9.79364 4.75633L9.2864 4.5614L8.81817 4.71734L8.34994 4.5614L7.92074 4.71734L7.41349 4.5614L6.94526 4.79532L6.43802 4.60038L5.96979 4.75633L5.50157 4.60038L5.07236 4.75633L4.56512 4.60038L4.09689 4.8343L3.66768 4.67836C3.66768 96.3348 3.31651 96.4518 3.78474 126.237L155.061 125.925C154.788 94.7364 152.876 4.44444 152.876 4.44444L152.603 4.32748L150.34 2.76804Z" fill="url(#paint2_linear_6111_86858)"/>
<path d="M149.247 4.01556H149.169L148.701 4.21049L148.194 4.01556L147.725 4.17151L147.257 4.01556L146.828 4.17151L146.282 4.01556L145.813 4.24948L145.306 4.05455L144.838 4.21049L144.37 4.05455L143.94 4.21049L143.394 4.05455L142.926 4.28847L142.419 4.09354L141.951 4.24948L141.482 4.09354L141.053 4.24948L140.507 4.09354L140.039 4.32745L139.531 4.13252L139.063 4.28847L138.595 4.13252L138.166 4.28847L137.619 4.13252L137.151 4.36644L136.644 4.17151L136.176 4.32745L135.707 4.17151L135.278 4.32745L134.732 4.17151L134.264 4.40543L133.757 4.21049L133.288 4.36644L132.82 4.21049L132.391 4.36644L131.845 4.21049L131.376 4.44441L130.869 4.24948L130.401 4.40543L129.933 4.24948L129.503 4.40543L128.957 4.24948L128.489 4.4834L127.982 4.28847L127.514 4.44441L127.045 4.28847L126.616 4.44441L126.07 4.28847L125.602 4.52238L125.094 4.32745L124.626 4.4834L124.158 4.32745L123.729 4.4834L123.182 4.32745L122.714 4.56137L122.207 4.36644L121.739 4.52238L121.271 4.36644L120.841 4.52238L120.295 4.36644L119.827 4.60036L119.32 4.40543L118.851 4.56137L118.383 4.40543L117.954 4.56137L117.408 4.40543L116.939 4.63934L116.432 4.44441L115.964 4.60036L115.496 4.44441L115.067 4.60036L114.52 4.44441L114.052 4.67833L113.545 4.4834L113.077 4.63934L112.608 4.4834L112.179 4.63934L111.633 4.4834L111.165 4.71731L110.657 4.52238L110.189 4.67833L109.721 4.52238L109.292 4.67833L108.745 4.52238L108.277 4.7563L107.77 4.56137L107.302 4.71731L106.834 4.56137L106.404 4.71731L105.858 4.56137L105.39 4.79529L104.883 4.60036L104.414 4.7563L103.946 4.60036L103.517 4.7563L102.971 4.60036L102.502 4.83427L101.995 4.63934L101.527 4.79529L101.059 4.63934L100.63 4.79529L100.083 4.63934L99.615 4.87326L99.1078 4.67833L98.6396 4.83427L98.1713 4.67833L97.7421 4.83427L97.1959 4.67833L96.7276 4.91225L96.2204 4.71731L95.7522 4.87326L95.2839 4.71731L94.8547 4.87326L94.3085 4.71731L93.8402 4.95123L93.333 4.7563L92.8648 4.91225L92.3965 4.7563L91.9673 4.91225L91.4211 4.7563L90.9529 4.99022L90.4456 4.79529L89.9774 4.95123L89.5092 4.79529L89.0799 4.95123L88.5337 4.79529L88.0655 5.0292L87.5582 4.83427L87.09 4.99022L86.6217 4.83427L86.1925 4.99022L85.6463 4.83427L85.1781 5.06819L84.6708 4.87326L84.2026 5.0292L83.7344 4.87326L83.3052 5.0292L82.7589 4.87326L82.2907 5.10718L81.7834 4.91225L81.3152 5.06819L80.847 4.91225L80.4178 5.06819L79.8715 4.91225L79.4033 5.14616L78.896 4.95123L78.4278 5.10718L77.9596 4.95123L77.5304 5.10718L76.9841 4.95123L76.5159 5.18515L76.0086 4.99022L75.5404 5.14616L75.0332 4.95123L74.5649 5.10718L74.0187 4.95123L73.5504 5.18515L73.0432 4.99022L72.575 5.14616L72.1068 4.99022L71.6775 5.14616L71.1313 4.99022L70.663 5.22413L70.1558 5.0292L69.6876 5.18515L69.2193 5.0292L68.7901 5.18515L68.2439 5.0292L67.7757 5.26312L67.2684 5.06819L66.8002 5.22413L66.3319 5.06819L65.9027 5.22413L65.3565 5.06819L64.8882 5.30211L64.381 5.10718L63.9128 5.26312L63.4446 5.10718L63.0154 5.26312L62.4691 5.10718L62.0009 5.34109L61.4936 5.14616L61.0254 5.30211L60.5572 5.14616L60.128 5.30211L59.5817 5.14616L59.1135 5.38008L58.6062 5.18515L58.138 5.34109L57.6698 5.18515L57.2406 5.34109L56.6943 5.18515L56.2261 5.41907L55.7188 5.22413L55.2506 5.38008L54.7824 5.22413L54.3532 5.38008L53.8069 5.22413L53.3387 5.45805L52.8314 5.26312L52.3632 5.41907L51.895 5.26312L51.4658 5.41907L50.9195 5.26312L50.4513 5.49704L49.944 5.30211L49.4758 5.45805L49.0076 5.30211L48.5784 5.45805L48.0321 5.30211L47.5639 5.53602L47.0566 5.34109L46.5884 5.49704L46.1202 5.34109L45.691 5.49704L45.1447 5.34109L44.6765 5.57501L44.1692 5.38008L43.701 5.53602L43.2328 5.38008L42.8036 5.53602L42.2573 5.38008L41.7891 5.614L41.2818 5.41907L40.8136 5.57501L40.3454 5.41907L39.9162 5.57501L39.3699 5.41907L38.9017 5.65298L38.3944 5.45805L37.9262 5.614L37.458 5.45805L37.0288 5.614L36.4825 5.45805L36.0143 5.69197L35.507 5.49704L35.0388 5.65298L34.5706 5.49704L34.1414 5.65298L33.5951 5.49704L33.1269 5.73095L32.6197 5.53602L32.1514 5.69197L31.6832 5.53602L31.254 5.69197L30.7077 5.53602L30.2395 5.76994L29.7323 5.57501L29.264 5.73095L28.7958 5.57501L28.3666 5.73095L27.8203 5.57501L27.3521 5.80893L26.8449 5.614L26.3766 5.76994L25.9084 5.614L25.4792 5.76994L24.9329 5.614L24.4647 5.84791L23.9575 5.65298L23.4892 5.80893L23.021 5.65298L22.5918 5.80893L22.0455 5.65298L21.5773 5.8869L21.0701 5.69197L20.6018 5.84791L20.1336 5.69197L19.7044 5.84791L19.1581 5.69197L18.6899 5.92589L18.1827 5.73095L17.7145 5.8869L17.2462 5.73095L16.817 5.8869L16.2708 5.73095L15.8025 5.96487L15.2953 5.76994L14.8271 5.92589L14.3588 5.76994L13.9296 5.92589L13.3834 5.76994L12.9151 6.00386L12.4079 5.80893L11.9397 5.96487L11.4714 5.80893L11.0422 5.96487L10.496 5.80893L10.0277 6.04284L9.52049 5.84791L9.05226 6.00386L8.58404 5.84791L8.15483 6.00386L7.60857 5.84791L7.14034 6.08183L6.63309 5.8869L6.16487 6.04284L5.69664 5.8869L5.26743 6.04284L4.72117 5.8869L4.25294 6.12082L3.7457 5.92589L3.27747 6.08183L2.80925 5.92589L2.38004 6.08183L1.83377 5.92589L1.36555 6.1598L0.93634 6.00386C1.83377 97.1145 1.63868 97.1145 2.45808 126.744L153.734 126.432C153.149 95.3991 152.134 78.2452 150.144 5.57501L149.247 4.01556Z" fill="url(#paint3_linear_6111_86858)"/>
<path d="M151.081 6.27678L150.808 6.39374L150.301 6.19881L149.832 6.35475L149.364 6.19881L148.935 6.31576L148.428 6.15982L147.96 6.39374L147.452 6.19881L146.984 6.35475L146.516 6.19881L146.087 6.31576L145.579 6.15982L145.111 6.39374L144.604 6.19881L144.136 6.35475L143.667 6.19881L143.238 6.31576L142.731 6.15982L142.263 6.39374L141.756 6.19881L141.287 6.35475L140.819 6.19881L140.39 6.31576L139.883 6.15982L139.414 6.39374L138.907 6.19881L138.439 6.35475L137.971 6.19881L137.541 6.31576L137.034 6.15982L136.566 6.39374L136.059 6.19881L135.591 6.35475L135.122 6.19881L134.693 6.31576L134.186 6.15982L133.718 6.39374L133.21 6.19881L132.742 6.35475L132.274 6.19881L131.845 6.31576L131.337 6.15982L130.869 6.39374L130.362 6.19881L129.894 6.35475L129.426 6.19881L128.996 6.31576L128.489 6.15982L128.021 6.39374L127.514 6.19881L127.045 6.35475L126.577 6.19881L126.148 6.31576L125.641 6.15982L125.173 6.39374L124.665 6.19881L124.197 6.35475L123.729 6.19881L123.3 6.31576L122.792 6.15982L122.324 6.39374L121.817 6.19881L121.349 6.35475L120.88 6.19881L120.451 6.31576L119.944 6.15982L119.476 6.39374L118.969 6.19881L118.5 6.35475L118.032 6.19881L117.603 6.31576L117.096 6.15982L116.627 6.39374L116.12 6.19881L115.652 6.35475L115.184 6.19881L114.754 6.31576L114.247 6.15982L113.779 6.39374L113.272 6.19881L112.804 6.35475L112.335 6.19881L111.906 6.31576L111.399 6.15982L110.931 6.39374L110.423 6.19881L109.955 6.35475L109.487 6.19881L109.058 6.31576L108.55 6.15982L108.082 6.39374L107.575 6.19881L107.107 6.35475L106.639 6.19881L106.209 6.31576L105.702 6.15982L105.234 6.39374L104.727 6.19881L104.258 6.35475L103.79 6.19881L103.361 6.31576L102.854 6.15982L102.385 6.39374L101.878 6.19881L101.41 6.35475L100.942 6.19881L100.513 6.31576L100.005 6.15982L99.5371 6.39374L99.0299 6.19881L98.5616 6.35475L98.0934 6.19881L97.6642 6.31576L97.157 6.15982L96.6887 6.39374L96.1815 6.19881L95.7133 6.35475L95.245 6.19881L94.8158 6.31576L94.3086 6.15982L93.8404 6.39374L93.3331 6.19881L92.8649 6.35475L92.3967 6.19881L91.9675 6.31576L91.4602 6.15982L90.992 6.39374L90.4847 6.19881L90.0165 6.35475L89.5483 6.19881L89.1191 6.31576L88.6118 6.15982L88.1436 6.39374L87.6364 6.19881L87.1681 6.35475L86.6999 6.19881L86.2707 6.31576L85.7635 6.15982L85.2952 6.39374L84.788 6.19881L84.3198 6.35475L83.8515 6.19881L83.4223 6.31576L82.9151 6.15982L82.4469 6.39374L81.9396 6.19881L81.4714 6.35475L81.0032 6.19881L80.574 6.31576L80.0667 6.15982L79.5985 6.39374L79.0912 6.19881L78.623 6.35475L78.1158 6.19881L77.6475 6.35475L77.1403 6.19881L76.6721 6.43272L76.1648 6.23779L75.6966 6.39374L75.2284 6.23779L74.7992 6.35475L74.2919 6.19881L73.8237 6.43272L73.3164 6.23779L72.8482 6.39374L72.38 6.23779L71.9508 6.35475L71.4435 6.19881L70.9753 6.43272L70.4681 6.23779L69.9998 6.39374L69.5316 6.23779L69.1024 6.35475L68.5952 6.19881L68.1269 6.43272L67.6197 6.23779L67.1515 6.39374L66.6832 6.23779L66.254 6.35475L65.7468 6.19881L65.2786 6.43272L64.7713 6.23779L64.3031 6.39374L63.8349 6.23779L63.4057 6.35475L62.8984 6.19881L62.4302 6.43272L61.9229 6.23779L61.4547 6.39374L60.9865 6.23779L60.5573 6.35475L60.05 6.19881L59.5818 6.43272L59.0746 6.23779L58.6063 6.39374L58.1381 6.23779L57.7089 6.35475L57.2017 6.19881L56.7334 6.43272L56.2262 6.23779L55.758 6.39374L55.2897 6.23779L54.8605 6.35475L54.3533 6.19881L53.8851 6.43272L53.3778 6.23779L52.9096 6.39374L52.4414 6.23779L52.0121 6.35475L51.5049 6.19881L51.0367 6.43272L50.5294 6.23779L50.0612 6.39374L49.593 6.23779L49.1638 6.35475L48.6565 6.19881L48.1883 6.43272L47.6811 6.23779L47.2128 6.39374L46.7446 6.23779L46.3154 6.35475L45.8082 6.19881L45.3399 6.43272L44.8327 6.23779L44.3645 6.39374L43.8962 6.23779L43.467 6.35475L42.9598 6.19881L42.4916 6.43272L41.9843 6.23779L41.5161 6.39374L41.0479 6.23779L40.6186 6.35475L40.1114 6.19881L39.6432 6.43272L39.1359 6.23779L38.6677 6.39374L38.1995 6.23779L37.7703 6.35475L37.263 6.19881L36.7948 6.43272L36.2876 6.23779L35.8193 6.39374L35.3511 6.23779L34.9219 6.35475L34.4146 6.19881L33.9464 6.43272L33.4392 6.23779L32.9709 6.39374L32.5027 6.23779L32.0735 6.35475L31.5663 6.19881L31.098 6.43272L30.5908 6.23779L30.1226 6.39374L29.6543 6.23779L29.2251 6.35475L28.7179 6.19881L28.2497 6.43272L27.7424 6.23779L27.2742 6.39374L26.806 6.23779L26.3768 6.35475L25.8695 6.19881L25.4013 6.43272L24.894 6.23779L24.4258 6.39374L23.9576 6.23779L23.5284 6.35475L23.0211 6.19881L22.5529 6.43272L22.0457 6.23779L21.5774 6.39374L21.1092 6.23779L20.68 6.35475L20.1728 6.19881L19.7045 6.43272L19.1973 6.23779L18.7291 6.39374L18.2608 6.23779L17.8316 6.35475L17.3244 6.19881L16.8562 6.43272L16.3489 6.23779L15.8807 6.39374L15.4125 6.23779L14.9833 6.35475L14.476 6.19881L14.0078 6.43272L13.5005 6.23779L13.0323 6.39374L12.5641 6.23779L12.1349 6.35475L11.6276 6.19881L11.1594 6.43272L10.6522 6.23779L10.1839 6.39374L9.71571 6.23779L9.2865 6.35475L8.77926 6.19881L8.31103 6.43272L7.80379 6.23779L7.33556 6.39374L6.86733 6.23779L6.43813 6.35475L5.93088 6.19881L5.46265 6.43272L5.03345 6.27678C5.1505 97.8942 1.91194 97.4264 4.37013 124.912L155.685 124.522C156.544 101.481 155.412 101.715 155.061 71.6565C154.827 53.8399 154.554 32.5924 154.242 6.04286L153.968 5.9259L151.081 6.27678Z" fill="url(#paint4_linear_6111_86858)"/>
<path style="mix-blend-mode:multiply" d="M151.081 6.27678L150.808 6.39374L150.301 6.19881L149.832 6.35475L149.364 6.19881L148.935 6.31576L148.428 6.15982L147.96 6.39374L147.452 6.19881L146.984 6.35475L146.516 6.19881L146.087 6.31576L145.579 6.15982L145.111 6.39374L144.604 6.19881L144.136 6.35475L143.667 6.19881L143.238 6.31576L142.731 6.15982L142.263 6.39374L141.756 6.19881L141.287 6.35475L140.819 6.19881L140.39 6.31576L139.883 6.15982L139.414 6.39374L138.907 6.19881L138.439 6.35475L137.971 6.19881L137.541 6.31576L137.034 6.15982L136.566 6.39374L136.059 6.19881L135.591 6.35475L135.122 6.19881L134.693 6.31576L134.186 6.15982L133.718 6.39374L133.21 6.19881L132.742 6.35475L132.274 6.19881L131.845 6.31576L131.337 6.15982L130.869 6.39374L130.362 6.19881L129.894 6.35475L129.426 6.19881L128.996 6.31576L128.489 6.15982L128.021 6.39374L127.514 6.19881L127.045 6.35475L126.577 6.19881L126.148 6.31576L125.641 6.15982L125.173 6.39374L124.665 6.19881L124.197 6.35475L123.729 6.19881L123.3 6.31576L122.792 6.15982L122.324 6.39374L121.817 6.19881L121.349 6.35475L120.88 6.19881L120.451 6.31576L119.944 6.15982L119.476 6.39374L118.969 6.19881L118.5 6.35475L118.032 6.19881L117.603 6.31576L117.096 6.15982L116.627 6.39374L116.12 6.19881L115.652 6.35475L115.184 6.19881L114.754 6.31576L114.247 6.15982L113.779 6.39374L113.272 6.19881L112.804 6.35475L112.335 6.19881L111.906 6.31576L111.399 6.15982L110.931 6.39374L110.423 6.19881L109.955 6.35475L109.487 6.19881L109.058 6.31576L108.55 6.15982L108.082 6.39374L107.575 6.19881L107.107 6.35475L106.639 6.19881L106.209 6.31576L105.702 6.15982L105.234 6.39374L104.727 6.19881L104.258 6.35475L103.79 6.19881L103.361 6.31576L102.854 6.15982L102.385 6.39374L101.878 6.19881L101.41 6.35475L100.942 6.19881L100.513 6.31576L100.005 6.15982L99.5371 6.39374L99.0299 6.19881L98.5617 6.35475L98.0934 6.19881L97.6642 6.31576L97.157 6.15982L96.6887 6.39374L96.1815 6.19881L95.7133 6.35475L95.245 6.19881L94.8158 6.31576L94.3086 6.15982L93.8404 6.39374L93.3331 6.19881L92.8649 6.35475L92.3967 6.19881L91.9675 6.31576L91.4602 6.15982L90.992 6.39374L90.4847 6.19881L90.0165 6.35475L89.5483 6.19881L89.1191 6.31576L88.6118 6.15982L88.1436 6.39374L87.6364 6.19881L87.1681 6.35475L86.6999 6.19881L86.2707 6.31576L85.7635 6.15982L85.2952 6.39374L84.788 6.19881L84.3198 6.35475L83.8515 6.19881L83.4223 6.31576L82.9151 6.15982L82.4469 6.39374L81.9396 6.19881L81.4714 6.35475L81.0032 6.19881L80.574 6.31576L80.0667 6.15982L79.5985 6.39374L79.0912 6.19881L78.623 6.35475L78.1158 6.19881L77.6475 6.35475L77.1403 6.19881L76.6721 6.43272L76.1648 6.23779L75.6966 6.39374L75.2284 6.23779L74.7992 6.35475L74.2919 6.19881L73.8237 6.43272L73.3165 6.23779L72.8482 6.39374L72.38 6.23779L71.9508 6.35475L71.4435 6.19881L70.9753 6.43272L70.4681 6.23779L69.9998 6.39374L69.5316 6.23779L69.1024 6.35475L68.5952 6.19881L68.1269 6.43272L67.6197 6.23779L67.1515 6.39374L66.6832 6.23779L66.254 6.35475L65.7468 6.19881L65.2786 6.43272L64.7713 6.23779L64.3031 6.39374L63.8349 6.23779L63.4057 6.35475L62.8984 6.19881L62.4302 6.43272L61.9229 6.23779L61.4547 6.39374L60.9865 6.23779L60.5573 6.35475L60.05 6.19881L59.5818 6.43272L59.0746 6.23779L58.6063 6.39374L58.1381 6.23779L57.7089 6.35475L57.2017 6.19881L56.7334 6.43272L56.2262 6.23779L55.758 6.39374L55.2897 6.23779L54.8605 6.35475L54.3533 6.19881L53.8851 6.43272L53.3778 6.23779L52.9096 6.39374L52.4414 6.23779L52.0121 6.35475L51.5049 6.19881L51.0367 6.43272L50.5294 6.23779L50.0612 6.39374L49.593 6.23779L49.1638 6.35475L48.6565 6.19881L48.1883 6.43272L47.6811 6.23779L47.2128 6.39374L46.7446 6.23779L46.3154 6.35475L45.8082 6.19881L45.3399 6.43272L44.8327 6.23779L44.3645 6.39374L43.8962 6.23779L43.467 6.35475L42.9598 6.19881L42.4916 6.43272L41.9843 6.23779L41.5161 6.39374L41.0479 6.23779L40.6186 6.35475L40.1114 6.19881L39.6432 6.43272L39.1359 6.23779L38.6677 6.39374L38.1995 6.23779L37.7703 6.35475L37.263 6.19881L36.7948 6.43272L36.2876 6.23779L35.8193 6.39374L35.3511 6.23779L34.9219 6.35475L34.4146 6.19881L33.9464 6.43272L33.4392 6.23779L32.9709 6.39374L32.5027 6.23779L32.0735 6.35475L31.5663 6.19881L31.098 6.43272L30.5908 6.23779L30.1226 6.39374L29.6543 6.23779L29.2251 6.35475L28.7179 6.19881L28.2497 6.43272L27.7424 6.23779L27.2742 6.39374L26.806 6.23779L26.3768 6.35475L25.8695 6.19881L25.4013 6.43272L24.894 6.23779L24.4258 6.39374L23.9576 6.23779L23.5284 6.35475L23.0211 6.19881L22.5529 6.43272L22.0457 6.23779L21.5774 6.39374L21.1092 6.23779L20.68 6.35475L20.1728 6.19881L19.7045 6.43272L19.1973 6.23779L18.7291 6.39374L18.2608 6.23779L17.8316 6.35475L17.3244 6.19881L16.8562 6.43272L16.3489 6.23779L15.8807 6.39374L15.4125 6.23779L14.9833 6.35475L14.476 6.19881L14.0078 6.43272L13.5005 6.23779L13.0323 6.39374L12.5641 6.23779L12.1349 6.35475L11.6276 6.19881L11.1594 6.43272L10.6522 6.23779L10.1839 6.39374L9.71571 6.23779L9.2865 6.35475L8.77926 6.19881L8.31103 6.43272L7.80379 6.23779L7.33556 6.39374L6.86733 6.23779L6.43813 6.35475L5.93088 6.19881L5.46265 6.43272L5.03345 6.27678C5.1505 97.8942 1.91194 97.4264 4.37013 124.912L155.685 124.522C156.544 101.481 155.412 101.715 155.061 71.6565C154.827 53.8399 154.554 32.5924 154.242 6.04286L153.968 5.9259L151.081 6.27678Z" fill="url(#paint5_linear_6111_86858)"/>
<mask id="path-7-inside-1_6111_86858" fill="white">
<path d="M20.4385 30.8663H136.396V93.4331H20.4385V30.8663Z"/>
</mask>
<path d="M20.4385 30.8663V32.5348H136.396V30.8663V29.1979H20.4385V30.8663ZM136.396 93.4331V91.7647H20.4385V93.4331V95.1016H136.396V93.4331Z" fill="#ADAEB4" mask="url(#path-7-inside-1_6111_86858)"/>
<path d="M23.7976 88.3305C23.8773 88.2696 24.2146 88.4071 24.3437 88.3795C24.2163 89.0088 23.5034 88.5515 23.7976 88.3305ZM37.2117 42.5488C37.0999 42.7059 36.9887 42.8631 36.8779 43.0203C37.203 43.1145 37.6419 42.9921 37.9536 43.133C38.0046 43.1567 37.8826 43.6078 38.0024 43.6254C38.1224 43.643 38.087 43.0305 38.2605 42.9615C38.4663 42.8857 39.3383 43.2956 39.6451 43.2792C40.8037 43.2149 41.924 42.8426 43.0965 43.0742C41.907 43.5512 43.122 43.989 43.4571 43.7858C43.5302 43.7388 43.4866 42.5998 44.6764 42.8634C45.4385 43.0306 44.7663 44.6734 46.026 43.8323C45.0212 42.7119 45.9963 42.7727 46.7381 42.7203C46.8661 42.7111 47.9273 42.8616 48.4041 42.8018C48.5702 42.781 48.7933 42.1795 49.0034 42.1598C49.1474 42.1466 49.2629 42.4708 49.4778 42.45C50.4801 42.3569 51.4937 42.3118 52.4928 42.4028C51.9333 43.9479 52.9682 43.0474 53.0187 43.1198C53.2677 43.5316 52.1797 43.6712 52.6156 43.9233C53.2135 43.8642 53.8332 43.8047 54.4289 43.7457C53.9372 43.5668 55.0502 42.4416 55.2726 42.9394C55.1489 41.5859 58.0511 44.0659 58.4653 43.6052C58.5545 43.5079 57.9483 42.8494 59.3269 43.1296C59.4767 43.1608 59.4281 43.5707 59.5057 43.5311C59.552 43.5073 59.8115 42.2022 60.1292 42.9146C60.2424 43.1747 59.5638 44.0415 61.0823 43.6693C60.439 42.3583 63.2148 42.9121 63.7176 43.2342C63.6142 43.0584 63.5109 42.8826 63.4078 42.7068C63.9109 43.1768 63.9927 42.7253 64.1048 42.7477C64.5572 42.8377 65.1896 43.2791 65.6141 43.2297C66.1091 43.1728 66.1041 42.3499 66.681 42.6592C66.5422 42.4802 66.4044 42.3013 66.2614 42.1224C66.6634 42.1585 67.0529 42.1949 67.4513 42.2312C66.5555 43.3374 67.6495 42.2794 67.7236 42.2546C67.8403 42.2127 67.6798 42.6617 67.8753 42.6025C67.8956 42.593 67.858 42.1737 68.1608 42.1209C68.7942 42.0119 68.7043 42.5416 68.9719 42.5306C68.9965 42.5275 68.9029 42.1509 69.3651 42.0527C70.8215 41.7406 69.3681 42.3426 69.3076 42.396C69.2353 42.4664 69.7674 44.0375 68.509 43.5004C68.9307 43.671 68.9865 44.3696 69.034 44.3861C69.0749 44.3996 69.8056 44.2874 69.8411 44.2626C70.1881 44.0186 69.8699 43.5464 69.9368 43.4595C69.991 43.3894 70.8667 43.9961 71.0442 42.5547C71.4848 43.873 70.826 43.7637 70.1378 43.9805C70.0415 44.2545 70.8079 44.5049 70.8485 44.5034C71.8351 44.4826 71.2688 43.402 71.4717 42.7007C71.5785 42.3338 71.9963 43.0705 71.6053 42.0993C72.5037 41.9794 71.9683 42.5563 72.0279 42.6391C72.118 42.7607 72.4287 42.4745 72.4691 42.5111C72.5282 42.5653 72.3325 42.9077 72.5639 43.0227C72.6023 43.0393 72.9611 42.4498 72.4794 42.1801C73.1178 42.2511 73.0568 41.7552 73.2873 42.7526C73.6835 40.8502 73.6211 43.8666 73.7931 43.9696C74.2512 44.241 74.0925 42.7561 74.1151 42.6831C74.2703 42.2153 75.5413 42.7029 75.8531 42.4828C75.7482 43.5564 74.8494 42.513 74.658 42.7244C74.0177 43.4279 75.5893 43.243 75.1394 44.5978C75.3319 44.2245 75.5247 43.8511 75.718 43.4777C76.101 44.3364 75.5866 44.7234 76.5699 44.389C76.7194 43.639 75.8722 44.5198 76.0347 43.9282C76.1302 43.581 76.7025 43.4963 76.7076 43.3141C76.7165 43.0947 76.2047 43.3639 76.2796 43.0254C76.4492 42.2946 78.321 42.953 76.91 43.376C77.3053 43.3563 77.5362 44.7994 77.8725 44.3423C78.0907 44.0456 76.7972 42.0703 78.6895 42.4023C78.7419 43.0847 77.9386 42.6178 77.9194 42.6702C77.8919 42.7464 78.0635 44.2855 78.0898 44.3611C78.1768 44.6101 80.1085 43.749 80.5183 44.5165C80.3408 43.6283 81.9642 44.3312 82.1374 44.0564C82.183 43.9806 81.9977 43.438 82.0468 43.3793C82.353 43.0298 83.2202 43.9888 83.6164 44.0069C84.0522 44.0277 83.9888 43.5573 84.0131 43.5577C84.2055 43.5806 84.0579 43.9029 84.1752 43.8999C84.3515 43.8952 85.5759 43.9386 85.6371 43.8708C85.6547 43.8497 85.4448 43.3148 85.7105 43.2078C85.7567 43.1893 85.7376 43.8283 86.5274 43.5383C87.4798 43.1895 85.8482 42.7562 86.2343 42.0805C86.8662 43.0215 86.8299 42.0785 86.9983 42.1495C87.0586 42.1755 87.4976 42.97 87.9588 42.911C87.628 43.0471 87.3049 43.1831 86.9683 43.3194C87.304 43.4541 87.9277 43.2688 88.2011 43.4229C88.3338 43.4979 88.2372 44.1587 88.5223 44.1359C88.5829 44.1274 88.7942 42.5178 88.06 43.2514C87.9901 42.6793 88.352 43.0462 88.5143 42.8812C88.5389 42.8554 88.6203 41.8961 88.842 42.4875C88.8958 42.633 88.3911 45.4362 89.7823 43.3891C89.8271 43.3231 89.6609 42.9761 89.7046 42.9028C89.7344 42.8532 90.1019 42.9882 90.1415 42.9379C90.1818 42.8839 89.9987 42.5051 90.0465 42.429C90.2916 42.0373 90.6494 43.5463 90.1275 43.44C90.3045 43.6242 90.4816 43.8083 90.6589 43.9925C90.4518 42.8541 90.929 43.6664 91.1636 43.6271C92.6853 43.3755 91.6507 42.651 91.9062 42.2622C92.3182 41.6379 92.0292 43.5973 92.6476 42.9992C92.7052 42.9433 91.9285 42.1274 93.424 42.5692C93.2048 42.6054 92.9858 42.6415 92.7671 42.6777C92.9127 43.7797 93.5585 42.5881 93.6098 42.5717C94.1927 42.4098 93.8033 42.8148 94.6645 42.231C94.7405 42.1786 94.9127 42.4482 95.0749 42.3094C95.748 41.7375 94.1678 41.9853 94.1122 41.5391C94.0922 41.3203 95.7967 41.3458 95.8575 41.4488C96.1141 41.9055 95.0881 41.6653 95.2929 42.2343C95.365 42.4363 97.7953 41.9766 98.2941 42.1908C98.8633 42.4403 99.1398 43.9331 99.115 42.2509C99.3021 43.8994 99.423 42.7703 99.4952 42.7805C100.369 42.9184 100.371 42.935 101.118 42.7641C101.283 42.7269 101.432 43.2255 101.489 43.1399C101.522 43.0882 101.449 42.5531 101.614 42.3849C101.845 42.1545 103.242 42.6824 103.35 42.977C103.458 43.2717 102.766 43.1155 102.898 43.6007C103.397 43.6415 103.874 43.5128 104.378 43.5557C104.588 43.5749 104.486 43.9178 104.577 43.9231C104.615 43.9266 105.334 43.6141 105.301 43.4888C105.223 43.1974 102.997 43.4318 103.574 42.825C103.685 42.7077 104.098 43.4869 104.019 42.5322C106.022 42.7151 108.005 42.8986 110.012 43.0821C108.873 43.816 107.574 43.1982 106.381 43.2852C106.22 43.2962 105.658 43.2135 105.734 43.6954C106.76 43.8032 108.014 43.5305 109.002 43.8289C109.034 43.8388 108.926 44.2748 109.044 44.3416C109.266 44.4663 109.971 43.7544 110.095 43.9334C110.117 43.9753 109.718 44.5542 109.848 44.9157C110.182 45.8435 110.228 43.7756 110.5 43.7956C110.71 43.8119 112.142 44.7878 112.486 44.1507C112.85 43.4716 111.434 43.7772 111.53 43.2253C112.48 42.6566 113.469 43.231 114.375 43.1473C114.391 43.1453 114.246 42.7164 114.447 42.6528C114.796 42.5421 114.899 43.1522 115.072 43.2472C115.258 43.3484 115.91 43.2501 116.002 43.4717C116.013 43.5007 115.89 44.1095 115.871 44.1269C115.59 44.3815 115.476 43.5958 115.45 43.5861C115.352 43.5579 115.261 43.861 115.172 43.8445C115.026 43.8169 114.941 43.5392 114.747 43.5177C114.614 43.5018 114.751 44.0355 114.623 44.0131C114.575 44.0027 114.049 42.7876 114.021 44.0372C114.009 44.4311 118.181 44.8693 118.591 44.5479C118.234 44.4034 117.873 44.259 117.513 44.1146C118.248 44.4684 119.096 43.4568 119.182 44.932C121.871 45.0097 124.559 45.0882 127.248 45.1674C127.729 45.2858 127.48 46.2385 128.265 45.9503C128.056 45.6512 127.848 45.3521 127.639 45.053C128.046 45.2588 129.847 45.6455 130.135 45.4454C130.172 45.4192 130.212 44.5598 130.658 44.4793C131.054 44.4081 131.127 45.0504 131.341 45.1704C131.521 45.2694 131.719 45.0978 131.772 45.1325C131.813 45.1604 131.835 45.5535 131.934 45.6206C132.246 45.828 131.979 44.7242 132.304 45.9915C132.23 46.0411 132.157 46.0906 132.083 46.1402C132.458 46.3187 132.975 46.8885 132.431 47.1816C132.338 47.2322 132.413 46.8504 132.342 46.8521C129.591 46.9645 131.799 47.671 132.756 47.0655C133.012 47.6256 134.398 47.2605 134.447 47.371C134.513 47.531 134.282 47.9852 134.599 48.3697C134.666 48.451 136.517 48.1078 135.86 48.8671C135.724 49.0237 134.832 48.8745 134.618 48.8998C135.14 50.0875 136.298 48.3576 136.432 48.3995C136.972 48.5778 135.416 49.4505 136.628 49.5716C137.56 49.6644 136.674 48.8792 137.027 48.5333C137.225 48.3392 138.292 49.2029 138.247 48.0648C138.607 47.938 138.404 48.5439 138.45 48.5866C138.494 48.6241 139.199 48.2729 139.433 48.5095C139.461 48.539 139.382 49.132 139.412 49.18C139.469 49.2621 140.152 49.1339 140.179 49.0833C140.196 49.0482 140.025 48.5325 140.091 48.4059C140.167 48.2599 140.828 48.3723 140.862 48.2236C140.91 47.999 140.098 48.1582 140.226 47.5769C140.603 47.7174 141.209 47.322 141.45 46.852C141.391 46.9863 141.028 47.0106 140.901 46.9655C140.948 46.1161 141.73 46.1164 141.472 46.7918C141.637 46.4287 141.518 46.239 141.609 45.8973C141.633 45.8107 141.874 45.7895 141.918 45.6419C141.924 45.6125 141.67 45.2959 141.718 45.1229C141.803 44.8101 142.537 44.8697 142.598 44.9506C142.77 45.1797 142.177 45.4684 142.132 45.827C142.126 45.8821 142.644 46.5762 142.652 46.638C142.691 47.3022 142.12 46.8313 142.193 47.4288C142.334 47.5532 142.476 47.6777 142.617 47.8021C142.087 48.4157 141.086 48.1184 140.839 48.8114C141.634 48.5948 142.471 48.6071 142.491 50.1594C142.5 50.8131 142.161 51.2013 142.177 51.3673C142.236 51.9614 142.705 51.3084 142.723 51.3396C142.738 51.3756 142.746 51.4108 142.746 51.4452C142.746 51.4452 142.746 51.4452 142.746 51.4452C142.751 51.7934 142.073 52.0539 142.041 52.2134C141.987 52.4967 142.308 53.6549 142.311 53.912C142.301 53.9638 141.819 54.2459 141.99 54.6923C142.162 55.1432 142.587 55.1471 142.603 55.194C142.688 55.464 141.948 55.7219 141.928 55.8824C141.917 55.9635 142.324 56.4552 142.337 56.598C142.349 56.7414 142.051 57.0588 141.938 57.5134C141.853 57.8512 142.116 58.1055 142.072 58.1589C142.039 58.1943 141.337 58.1987 141.304 58.2583C141.254 58.3465 141.424 58.7463 141.401 58.8472C141.369 58.9923 141.141 58.8504 141.172 58.9988C141.196 59.1094 142.095 60.4831 142.094 60.8535C142.093 61.4852 141.142 60.0453 142.044 62.5253C142.05 62.5416 142.258 62.3614 142.264 62.3767C142.401 62.8334 141.735 63.5485 142.56 63.4134C141.034 64.2319 142.382 64.3656 142.17 65.4323C142.088 65.8423 141.495 66.0194 141.493 66.0808C141.558 66.5985 141.742 66.1936 141.81 66.447C141.848 66.5885 141.323 67.1445 141.448 67.4988C141.513 67.6814 142.077 67.6079 142.101 67.6434C142.33 67.9777 142.061 68.3453 142.113 68.5843C142.148 68.7446 142.489 68.7524 142.499 68.7812C142.514 68.8412 142.06 69.4974 141.967 69.7271C141.896 69.9038 142.175 70.1751 142.125 70.2524C141.823 70.7148 141.151 69.5562 141.806 71.1838C141.846 71.2836 142.085 71.2396 142.092 71.2595C142.247 71.7214 141.807 71.7678 141.734 72.1487C141.608 72.8052 142.235 72.4312 141.716 72.899C142.117 73.3213 142.336 73.3003 142.797 73.1744C141.522 73.5255 141.095 75.2263 142.515 75.1632C142.062 75.1433 142.126 76.0988 141.992 76.1175C141.908 76.1281 141.24 75.1868 141.571 77.3156C141.612 77.5815 142.005 77.2372 141.888 77.7844C140.932 77.659 141.873 78.1317 141.875 78.2038C141.88 79.4605 139.535 78.465 139.138 78.6142C138.675 78.7872 138.276 79.7834 138.175 79.7861C137.843 79.7914 138.111 79.2846 138.034 79.1009C137.956 78.9188 137.025 79.8958 136.977 79.8437C136.791 79.6339 136.968 79.0355 136.948 79.0057C136.716 78.6439 135.454 79.1292 135.098 78.996C135.114 79.3823 135.827 79.4024 135.392 80.0297C134.885 80.7611 134.829 79.0579 134.815 78.9831C132.435 79.0348 130.06 79.0871 127.684 79.1399C127.727 80.0458 129.27 79.3384 129.308 79.4571C129.525 80.1604 126.903 80.1878 126.576 79.8729C126.825 80.0648 127.071 80.2568 127.318 80.4488C126.919 81.4973 125.97 80.1579 125.373 80.6273C125.18 80.7795 125.561 81.1759 125.554 81.2034C125.341 81.6116 124.984 81.3053 125.239 80.7578C124.711 81.2868 124.78 80.7111 124.369 80.6744C124.348 80.6729 124.531 81.0907 124.209 81.2701C124.057 81.3538 123.246 81.3679 123.144 81.7374C123.102 81.893 123.539 83.5172 123.567 82.1129C124.46 82.7832 123.839 81.4689 124.182 81.4958C124.235 81.5023 124.126 82.2876 124.985 81.9053C124.842 83.3206 123.831 82.2798 123.663 82.4536C123.317 82.8109 124.777 83.5176 125.026 82.4123C124.919 83.5166 125.131 82.5592 125.456 82.5995C125.811 82.6431 125.661 82.9738 125.853 82.9726C126.378 82.9727 126.148 82.1979 126.592 82.8927C126.137 80.7275 127.326 82.5946 127.672 83.1583C127.125 83.277 126.577 83.3958 126.027 83.5146C126.061 83.6281 126.094 83.7417 126.127 83.8553C125.982 83.8414 125.836 83.8275 125.691 83.8136C125.713 83.7039 125.734 83.5943 125.756 83.4846C125.019 84.2069 124.825 83.4111 124.764 83.4031C123.977 83.3228 123.078 83.3438 122.282 83.3538C122.163 83.3553 122.256 84.0648 121.379 83.5221C121.099 83.3493 121.352 82.7921 121.039 82.8801C120.671 84.389 120.66 83.1903 120.543 83.1903C120.209 83.1958 120.011 83.5713 119.98 83.5757C119.567 83.6404 118.965 83.5879 118.51 83.6506C118.502 83.6564 118.746 84.1143 118.448 83.9824C118.344 83.9353 117.38 81.9796 116.579 82.6351C116.793 82.7648 117.006 82.8944 117.219 83.024C116.967 82.8421 115.238 83.3669 115.671 83.8876C115.937 84.2057 116.552 82.9252 116.642 84.1456C116.059 83.7893 112.868 84.3883 112.614 84.1086C112.579 84.0687 112.784 83.6689 112.736 83.619C112.699 83.581 111.968 83.6869 111.869 83.5363C111.81 83.4468 112.129 83.1986 112.1 83.0562C112.075 82.9548 111.16 82.8001 111.116 83.2978C111.337 83.0946 111.97 83.2584 111.646 83.6826C111.604 83.7353 111.379 83.4185 111.329 83.4853C110.86 84.1019 112.288 83.9322 112.511 83.9335C111.622 84.5812 110.217 83.8582 109.176 84.2882C108.747 83.8817 109.792 83.6453 109.308 83.3106C108.305 82.6171 109.054 83.8868 109.024 83.9399C108.785 84.3612 107.91 82.1396 107.939 83.8411C107.576 83.591 107.688 83.3745 107.187 83.6056C107.256 83.7223 107.324 83.8391 107.393 83.9558C106.853 84.9507 105.61 82.4843 105.698 82.2931C105.93 81.7814 106.566 82.5628 106.619 82.5429C106.697 82.5134 106.885 80.7831 107.766 82.3126C108.096 81.1487 106.398 81.5537 107.16 80.7513C106.639 80.8896 104.453 80.1202 104.154 80.6338C104.118 80.7008 104.31 81.8517 103.767 81.2735C103.509 80.9981 104.119 80.9743 103.999 80.7134C103.634 79.9125 98.7856 80.5116 97.8536 80.5706C97.7936 80.5729 97.8094 80.2144 97.7505 80.2187C97.5693 80.2319 96.9192 80.7773 96.5935 80.6181C97.2744 81.2693 95.9752 81.3435 95.6452 81.2763C95.1446 81.1739 95.1604 80.5433 94.9406 80.413C94.0886 79.9112 92.818 81.4301 92.1468 80.0428C92.2086 81.4304 91.0108 79.382 90.479 79.3793C90.0637 79.3767 89.48 80.306 90.0485 80.8556C89.3324 80.8044 88.588 81.0767 87.925 81.1729C87.8145 81.189 87.9603 80.7758 87.7707 80.8163C87.7535 80.8229 87.7368 81.2256 87.5742 81.2704C86.2343 81.6451 86.8746 80.7785 86.6183 80.5317C86.4753 80.3935 86.3704 80.3254 86.294 80.3037C87.0723 80.2111 87.9824 80.0368 88.216 80.0212C88.0031 79.1364 86.4806 80.2229 86.0333 79.9918C86.0176 79.9834 86.0628 79.4928 86.047 79.4896C86.0467 79.4896 86.0463 79.4896 86.046 79.4896C85.8773 79.4551 84.8186 79.6549 85.0478 80.2348C85.1093 80.3897 85.5973 80.3806 86.1785 80.3172C86.0229 80.4295 86.1504 80.9759 86.123 80.9998C85.7904 81.2769 84.9582 80.7564 84.6664 80.6894C84.5996 80.6748 84.6107 81.0261 84.5998 81.0271C84.3335 80.9521 84.4263 79.9467 84.1704 80.9864C83.6657 79.7446 85.0674 80.7845 84.9546 79.9741C84.8794 79.3499 81.7866 79.7417 81.8205 80.7266C81.808 80.6214 81.7635 80.4914 81.6743 80.3442C81.4746 80.0172 80.6316 80.136 80.4806 80.3203C80.4561 80.3565 80.4836 81.3124 80.4525 81.3218C80.3743 81.3452 79.3074 80.6148 78.9275 81.1871C79.1411 81.3172 79.3552 81.4474 79.5696 81.5775C78.2917 81.6092 78.4964 81.8901 78.9256 82.1682C78.9469 82.1704 78.9683 82.2063 78.9887 82.2098C79.3219 82.4152 79.7496 82.611 79.7575 82.6863C79.7839 82.9737 77.6266 83.1734 78.0265 82.2788C78.0813 82.1565 79.0878 82.5332 78.5814 81.9093C78.4925 81.8 77.8556 81.9924 77.821 81.9232C77.587 81.4635 78.9747 80.8217 78.7922 80.1657C78.4631 80.7995 78.0212 80.477 77.6361 80.6461C77.4609 80.7226 77.4265 81.2027 77.4049 81.2122C77.0822 81.3433 77.2556 80.8373 77.1459 80.8519C77.0864 80.8616 76.4549 81.9433 76.5509 80.4664C74.4351 81.5906 75.9759 81.561 77.2913 81.4538C76.8866 81.9985 76.0658 81.7538 75.7055 81.8851C75.576 81.9328 75.6622 82.4234 75.444 82.5259C74.9968 82.7367 72.8256 82.2114 72.2554 82.0888C72.5988 81.9085 72.4874 81.3743 72.2207 81.4164C71.9542 81.4586 72.1919 82.1699 72.1412 82.2477C72.0856 82.3284 70.8314 82.014 70.6283 82.1105C71.559 81.8339 71.3374 81.3034 70.543 81.2622C70.6546 81.1062 70.7664 80.9501 70.8783 80.794C70.4258 81.0188 69.403 80.2223 69.1393 80.47C69.0973 80.5098 69.2591 80.9563 69.2356 80.9787C68.9997 81.1741 68.1829 80.731 68.1488 80.885C68.1194 81.0133 68.4705 81.3836 68.3463 81.5715C68.3204 81.611 67.9771 81.0098 67.6548 81.1652C67.5352 81.2224 67.6159 81.6461 67.586 81.6713C67.3357 81.8805 67.4763 81.1619 67.0096 81.2857C66.6654 81.3774 66.4214 82.082 65.9427 81.8591C67.5214 82.7217 66.1984 82.3739 65.5554 82.6565C65.4525 82.7015 65.555 83.4715 64.9292 83.1075C66.2212 81.6874 64.5378 82.3772 64.1963 82.3685C64.1774 82.3641 64.1612 81.8554 63.9927 81.8504C63.9784 81.8511 64.0061 82.1946 63.846 82.224C62.3337 82.5014 63.2966 82.0945 63.0021 81.7608C62.8765 81.6187 62.1541 82.1189 61.9589 82.1343C61.9139 82.1364 61.9277 81.7787 61.7538 81.796C61.4463 81.8275 61.179 82.2132 60.9777 82.2472C60.9535 82.2494 60.9456 81.6856 60.5554 81.8759C60.4461 81.9291 60.3263 82.1317 60.4859 82.2908C61.0226 82.8138 61.9544 81.8731 62.5501 82.394C63.0879 82.8686 61.4223 82.946 61.3395 82.9504C61.308 82.9528 61.6254 82.6667 61.2964 82.6176C61.0199 82.5767 60.5143 83.5605 60.0859 83.3565C60.0531 83.3414 59.699 82.5223 59.7138 82.4738C59.7269 82.4384 60.2437 82.2492 60.1637 82.0118C60.154 81.9847 59.8235 81.9966 59.7772 81.8195C59.7203 81.604 59.5375 79.4817 59.4662 79.4298C59.2834 79.3016 59.41 79.784 59.2929 79.7525C59.0407 79.6863 58.1688 79.0743 58.1559 79.8114C58.2982 79.8524 58.4408 79.8934 58.5838 79.9344C57.7961 80.0253 58.1391 80.3324 58.0299 80.4727C57.9116 80.6244 57.9388 79.9762 57.6644 79.9207C57.6032 79.9085 56.4743 80.0654 56.5015 80.3366C57.1164 79.8923 56.9012 80.6968 56.9301 80.7106C57.0406 80.7606 57.172 80.3091 57.3197 80.3152C58.3613 80.3654 57.3255 81.094 57.5747 81.2714C57.66 81.3311 57.8228 80.9447 57.8571 80.9637C57.9717 81.0249 57.9832 81.5266 58.0582 81.4846C58.2332 81.387 58.0131 80.6811 58.0264 80.6438C58.1753 80.1965 58.808 80.7374 58.4357 81.5172C58.6734 81.7912 58.6827 80.8518 58.8748 81.2236C59.2571 81.9597 58.7019 81.7794 58.5559 81.9057C58.0313 82.361 57.8695 82.0037 57.1005 82.1418C56.8248 82.1907 56.5082 82.653 56.3815 82.6804C56.3008 82.6977 55.5174 81.1256 55.544 83.6092C55.2487 83.3746 54.7606 81.747 54.4518 81.8279C54.1781 81.9015 54.2827 82.7783 54.2576 82.8127C54.2192 82.8669 53.8866 82.8041 53.7775 82.9304C53.6496 83.0796 53.7213 83.4137 53.5169 83.5543C53.0091 83.9035 53.0064 83.0065 52.9525 82.9492C52.3302 82.2875 52.6221 83.5577 52.4891 83.6627C52.3826 83.7588 50.5589 83.3032 50.2033 83.633C50.351 83.4505 50.4992 83.2679 50.6479 83.0853C50.3645 82.5313 50.0958 83.4492 50.0713 82.4463C50.0468 84.0667 49.4732 82.9951 49.3044 83.0402C49.2369 83.0588 49.2476 83.3346 49.163 83.3482C48.8316 83.403 48.0891 83.1978 47.9165 83.3412C47.1644 83.9585 49.1386 84.9223 49.3035 84.9796C48.9837 84.968 47.2501 85.3647 48.0653 86.1275C48.1913 86.2452 48.3972 85.5163 48.4666 85.4865C48.9369 85.2907 48.5768 85.9473 48.6151 86.0084C48.6801 86.1068 48.9808 85.473 49.0654 85.5461C49.0937 85.5695 48.9263 86.161 49.383 86.1645C49.1661 86.739 47.8882 86.2994 47.7294 86.4364C47.673 86.4853 48.0588 87.6963 46.9711 86.534C46.9857 86.6468 47.0002 86.7597 47.0147 86.8725C46.4186 86.9308 45.7998 86.9895 45.2061 87.0478C45.2659 86.786 45.5918 86.256 45.1708 86.3754C44.929 86.4444 45.1202 87.0212 45.0984 87.0385C44.908 87.202 40.987 87.0861 40.2401 87.1657C39.9881 87.1917 39.2916 87.672 39.2296 87.6819C38.8941 87.7353 37.7399 87.4545 37.521 87.5247C37.3817 87.5697 37.5244 88.0522 37.399 88.0319C37.2768 88.0125 37.394 87.5411 37.3573 87.5223C37.1558 87.4151 36.1201 87.6602 35.3185 87.7212C34.865 87.7541 34.476 87.7354 34.2901 87.586C34.4432 87.6455 34.8809 87.4619 35.3085 87.2162C35.7583 86.9411 36.1945 86.588 36.1738 86.4135C36.1654 86.3683 35.7695 86.0193 35.694 86.1948C35.619 85.9777 35.461 86.2382 35.2941 86.4879C35.1414 86.7023 34.9818 86.9086 34.8622 86.7989C34.8334 86.7718 34.9307 86.0763 34.4783 85.9594C34.3228 85.9195 33.9312 86.4679 33.5251 85.87C32.9287 86.173 29.838 85.3348 29.6503 86.0838C29.6485 86.1231 30.0847 86.3711 29.8009 86.6825C29.4082 87.0969 29.7387 85.721 29.2743 85.6121C29.1939 85.5957 27.9677 85.7586 27.9087 85.8445C27.5368 86.6204 28.6583 86.9097 28.636 86.9994C28.6109 87.2249 27.6857 87.3794 27.6467 87.3271C27.6096 87.2726 28.3452 86.2398 27.4462 86.6437C27.5514 86.7633 27.6574 86.8829 27.7642 87.0025C27.342 87.2479 27.2915 86.5444 27.1889 86.5034C26.8795 86.3733 26.5449 87.45 26.0066 86.139C25.8652 85.7911 26.0808 85.3973 26.063 85.345C25.8913 84.8763 25.7114 86.1428 25.4566 85.2059C25.4312 85.1362 25.9973 84.5606 24.9959 84.5791C25.0672 84.668 25.1389 84.7569 25.2111 84.8457C25.0594 85.0504 24.081 85.1896 23.9381 85.1448C23.5315 85.0136 23.8682 84.3586 23.4698 84.444C23.7366 85.3272 22.5537 85.4666 22.596 84.7009C22.4426 85.6646 21.4009 84.9443 20.9302 84.9308C20.6269 84.9232 20.0071 85.3547 19.9218 85.3074C19.8013 85.2497 19.8216 84.594 19.6025 84.4524C19.5404 84.4121 18.9128 84.905 18.3574 84.2377C18.2514 84.1091 17.9898 83.0027 18.1923 82.7208C18.512 82.239 19.1996 83.1209 19.166 82.4647C19.1538 81.7623 18.2853 82.1975 18.0411 82.1107C16.9609 81.7081 17.5586 80.9492 17.5345 80.7233C17.4349 80.1758 16.8726 80.2041 16.8308 80.1555C16.7247 79.9382 17.1345 79.4951 17.1316 79.1598C17.1358 78.7231 16.5434 77.9469 16.6714 77.7972C16.8698 77.5842 17.3815 78.2308 17.4262 78.1985C17.854 77.7664 17.2301 76.7701 17.0605 76.2779C17.0084 76.1264 17.1987 75.8721 17.1573 75.8282C16.5334 75.1621 17.0591 77.2479 16.6344 77.1163C16.2639 76.9989 16.7232 76.3269 16.7118 76.2905C16.685 76.2509 16.2603 76.2232 16.173 75.9904C16.1521 75.8734 17.2586 74.5619 17.2053 73.9848C16.8436 74.1194 16.4776 74.2541 16.1072 74.3889C16.0687 73.6359 16.6004 74.1801 16.6585 74.1012C16.7677 73.9431 16.4475 73.568 16.458 73.3295C16.4599 73.1778 16.815 72.6298 16.4812 72.4135C16.3744 72.3386 16.1357 72.8719 15.7281 72.3402C17.1251 71.6226 16.152 71.2183 16.0921 70.9525C16.0503 70.6863 16.7183 70.0445 15.8892 70.1723C15.8263 68.7065 15.8921 69.7085 16.1303 69.4459C16.4184 69.1232 15.7318 68.6538 16.794 68.9991C16.7202 68.3137 15.8731 68.3793 15.83 68.3253C15.7908 68.2764 15.9693 67.935 15.9008 67.8219C15.0862 66.5111 15.6385 67.1061 15.3937 66.2635C15.3831 66.188 14.6124 65.8892 15.1893 65.7542C16.2038 65.5095 16.6885 66.4731 16.8015 64.3901C16.0172 63.5018 15.123 64.8629 14.8864 64.8904C14.5225 64.9305 14.8968 64.4986 14.8469 64.3807C14.8282 64.3426 14.5186 64.3839 14.5203 64.3502C14.2576 62.7684 15.8823 64.2965 16.3746 64.0107C16.2313 63.7759 16.1143 63.5406 15.9612 63.306C16.1544 63.2926 16.3137 63.2799 16.5063 63.2666C15.6353 62.8062 16.4659 63.0865 16.6631 61.7975C16.7101 61.5078 16.1501 62.0142 16.7761 61.1992C16.3108 61.0232 16.4278 60.7583 16.0225 61.1286C16.0092 60.6138 16.9848 60.0133 17.3587 59.7416C15.9936 59.19 16.7973 61.0632 15.6098 60.0874C15.4112 60.7291 15.956 60.594 15.9189 60.7001C15.7555 61.0819 15.3675 60.4886 14.9267 61.8237C14.8561 62.0428 15.1868 62.7064 14.7167 62.6835C14.6598 62.68 14.3543 62.1134 14.3536 62.0719C14.3916 61.6225 14.6821 61.7848 14.6959 61.5973C14.6986 61.42 14.3801 61.533 14.3706 61.484C14.3538 60.9224 14.6414 61.2638 14.5976 61.0887C14.5012 60.708 13.2856 59.5232 14.8482 59.8459C13.5579 60.5073 14.7081 60.4693 15.196 60.2154C15.3196 60.1518 15.346 59.8156 15.5347 59.6953C15.7505 59.5401 16.0546 59.6951 16.1625 59.6314C16.2938 59.5609 15.5299 58.7826 16.6172 58.9977C16.0447 58.2199 15.1038 59.0802 14.5443 58.5372C13.4337 57.4398 15.2794 57.1622 15.4734 57.0498C15.5257 57.0194 15.3374 56.5698 15.3725 56.5413C15.4253 56.4977 16.4809 56.6861 16.5768 56.3091C16.6756 55.9323 16.1884 56.3341 16.1497 55.944C16.1264 55.6813 17.3819 55.1894 16.69 55.0234C16.2129 54.9096 15.3832 55.9839 15.197 54.8507C15.891 54.7427 16.5806 54.6348 17.2747 54.5269C16.8951 54.1019 16.5121 53.677 16.1082 53.2525C16.881 53.0999 17.5789 53.5743 18.3 52.9407C16.5002 51.5905 18.8589 51.8234 18.874 51.6544C18.8774 51.5534 18.1668 50.4425 18.0414 50.2393C18.6543 49.7942 20.533 49.5454 19.4053 48.1786C19.6034 48.4883 20.0901 47.7044 20.0814 47.6461C19.9925 47.0341 18.96 47.4526 19.1189 46.8952C19.3005 46.2483 19.5884 47.1152 19.9051 47.0393C21.47 46.6448 20.9765 43.4507 22.5658 43.9261C22.5323 43.8127 22.4988 43.6993 22.4655 43.5859C24.1875 43.7332 25.9087 43.8806 27.6394 44.0278C28.2807 43.0367 30.0664 42.4055 30.9529 42.4961C31.1228 42.5138 32.0037 43.0098 32.0756 43.0984C32.2015 43.2685 31.5274 43.3477 31.8386 43.665C31.9129 43.7299 33.3792 43.9166 33.2629 43.3715C33.0965 43.3113 32.5965 43.5964 32.5131 43.4691C32.2057 42.994 33.2452 42.9446 34.4302 42.9503C35.4384 42.9569 36.5812 43.0093 36.6682 42.8305C36.5665 42.6547 36.4655 42.4789 36.357 42.3033C36.6513 42.385 36.9237 42.467 37.2117 42.5488ZM24.9262 86.7565C24.7614 87.3091 24.3288 86.9051 24.0853 87.0642C23.7207 87.2873 23.1749 89.4132 23.387 87.2891C23.9047 87.1115 24.4116 86.9341 24.9262 86.7565ZM32.4859 87.425C32.1346 87.1369 32.3775 85.9481 32.6735 86.4344C32.7067 86.4897 32.9648 87.8126 32.4859 87.425ZM28.8462 86.9354C28.8598 86.9194 29.1595 86.9448 29.1709 86.9631C29.4485 87.433 28.5458 87.3538 28.8462 86.9354ZM46.3727 85.981C45.9875 86.0397 46.2878 87.1101 46.5201 86.6626C46.5347 86.6342 46.398 85.978 46.3727 85.981ZM46.0976 85.9579C45.7789 85.0003 45.2213 86.9647 45.692 86.7587C45.7374 86.738 46.1121 86.0045 46.0976 85.9579ZM31.2491 86.9789C31.2824 86.6089 31.6505 86.7799 31.7963 86.8654C31.8001 87.2026 31.4062 86.9345 31.2491 86.9789ZM40.2975 86.6968C40.3077 86.4062 39.0775 86.4466 38.9907 86.8311C39.1955 86.6646 40.2883 86.958 40.2975 86.6968ZM43.4724 86.2263C43.4393 86.1767 43.0106 86.2615 43.0286 86.5174C43.244 86.8493 43.6197 86.4506 43.4724 86.2263ZM49.8032 86.1192C49.8254 86.0544 49.4748 84.4306 50.2493 85.4888C50.3631 85.6437 49.9758 86.0773 50.0164 86.135C50.1009 86.2475 50.1671 86.2994 50.2196 86.3079C49.8705 86.4498 49.5103 86.5205 49.4734 86.4223C49.3 85.9585 49.7931 86.1463 49.8032 86.1192ZM53.0948 84.8402C53.1619 84.5729 53.6299 84.7061 53.7387 84.8135C53.7574 84.8337 53.6912 85.534 53.9008 85.4777C54.0693 85.4313 53.8023 84.7205 54.1347 84.8286C54.4713 84.9371 54.0345 85.4558 54.0645 85.4916C54.1041 85.5386 54.616 85.2072 54.6083 85.6237C54.6018 85.9322 54.0428 85.7345 53.9081 85.8027C53.7351 85.8903 53.9566 86.3998 53.6629 86.2951C53.4787 86.2298 53.5626 85.3246 53.5231 85.2797C53.4895 85.2435 52.8636 85.7757 53.0958 84.843C53.0955 84.8421 53.0951 84.8412 53.0948 84.8402ZM50.314 86.2661C50.2881 86.2971 50.2573 86.314 50.2196 86.3079C50.2513 86.295 50.2828 86.2801 50.314 86.2661ZM25.9176 86.3404C26.1015 86.6154 25.5785 86.9832 25.3787 86.6221C25.3678 86.3279 25.8864 86.2977 25.9176 86.3404ZM50.6268 85.5242C51.1577 85.7402 50.7751 86.059 50.314 86.2661C50.4583 86.0932 50.4491 85.452 50.6268 85.5242ZM35.694 86.1948C35.7172 86.2618 35.7331 86.3665 35.7383 86.539C35.6772 86.3515 35.6701 86.2502 35.694 86.1948ZM36.9283 86.4784C37.3465 85.9442 36.4768 85.9827 36.4919 86.3587C36.4967 86.5006 36.911 86.4996 36.9283 86.4784ZM46.8684 86.0226C46.8268 85.972 47.395 84.373 46.5481 85.5811C47.0242 85.7589 46.529 85.9416 46.5393 86.0804C46.5738 86.4794 47.332 86.0804 47.507 86.2497C47.6263 85.5323 46.9955 86.1897 46.8694 86.0226C46.8691 86.0226 46.8687 86.0226 46.8684 86.0226ZM59.0857 85.1097C58.9885 85.5306 58.653 85.4022 58.4291 85.3818C58.5254 84.9609 58.86 85.0893 59.0857 85.1097ZM118.163 84.121C116.62 84.5333 116.393 82.8307 117.82 83.482C117.848 83.4958 118.255 83.9466 118.163 84.121ZM104.881 83.8983C104.723 83.1573 105.203 83.0296 105.525 83.3313C105.598 83.3991 105.877 84.1477 105.576 84.3001C105.57 83.3987 105.096 83.0624 104.881 83.8983ZM50.915 85.0423C51.0586 84.5435 51.5402 84.8872 51.794 84.9567C51.6478 85.368 51.1378 85.1932 50.915 85.0423ZM113.065 83.3141C112.901 83.2605 112.802 83.9091 112.831 83.9625C112.961 84.2073 113.257 83.6793 113.065 83.3141ZM49.4034 84.9948C49.3758 84.6989 49.9858 84.4017 50.0438 85.1334C49.9101 85.083 49.4218 85.1804 49.4034 84.9948ZM58.6579 84.8954C58.5586 84.7466 59.0524 84.4674 59.2073 84.614C59.2009 84.9295 58.7225 84.9921 58.6579 84.8954ZM110.447 83.5769C110.3 83.5232 109.933 83.5121 109.897 83.7743C109.852 84.1019 110.387 83.9816 110.447 83.5769ZM137.595 82.5865C137.615 82.7037 137.063 83.5586 136.809 83.3481C136.326 82.9452 137.574 82.5038 137.595 82.5865ZM114.606 82.9552C115.078 83.5629 114.556 82.9755 114.586 83.6229C114.898 83.6411 115.665 83.6606 115.127 83.0323C115.022 82.9108 114.753 82.9948 114.606 82.9552ZM114.177 82.7455C114.131 82.9562 113.809 83.6231 114.095 83.571C114.228 83.5459 114.431 82.8074 114.177 82.7455ZM134.101 82.9264C133.68 82.3591 135.577 82.6385 135.632 82.7382C135.661 82.7908 135.681 82.8405 135.692 82.8827C135.759 82.6999 136.115 82.6619 136.163 83.121C136.056 83.0846 135.764 83.1294 135.73 83.0789C135.715 83.0575 135.703 83.0373 135.696 83.0167C135.576 83.4176 134.182 83.0339 134.101 82.9264ZM130.96 82.3835C131.418 81.5304 131.524 82.9674 131.484 83.0144C130.98 83.6108 131.298 82.545 131.282 82.4955C131.245 82.4134 130.888 82.9112 130.962 82.3835C130.961 82.3835 130.961 82.3835 130.96 82.3835ZM133.455 82.6994C133.474 82.6804 133.871 82.7189 133.888 82.7414C134.22 83.2199 133.096 83.113 133.455 82.6994ZM55.5807 83.7853C55.8651 83.9229 55.5988 84.4574 55.4086 84.2707C55.393 84.2522 55.3302 83.6638 55.5807 83.7853ZM113.952 82.8918C113.883 82.7929 112.193 82.4435 112.308 83.241C112.448 83.1443 114.371 83.5243 113.952 82.8918ZM101.367 82.9086C101.664 82.9097 101.353 83.669 101.19 83.3907C101.129 83.2873 101.292 82.9088 101.367 82.9086ZM48.5364 84.3272C48.2344 84.7474 48.2712 83.357 48.5496 83.8279C48.5605 83.8463 48.5483 84.3108 48.5364 84.3272ZM103.748 83.3015C102.737 83.7756 102.936 81.3818 104.277 82.166C104.237 82.2731 104.198 82.3803 104.158 82.4874C105.698 82.8199 104.265 82.6541 103.893 82.7942C103.751 82.8475 103.877 83.2444 103.749 83.3043C103.749 83.3033 103.748 83.3024 103.748 83.3015ZM99.8076 82.8897C98.7968 81.2105 100.689 82.2827 101.227 82.0525C100.716 82.7619 100.034 82.6676 100.972 83.3688C99.621 83.5306 100.173 82.8455 100.118 82.7902C100.053 82.7283 99.8507 82.9618 99.8076 82.8897ZM102.408 82.8337C102.464 82.7833 102.903 83.1212 103.056 83.0623C102.85 83.6453 102.034 83.1767 102.408 82.8337ZM127.679 82.8274C127.708 82.3728 127.791 82.0371 128.132 82.2015C128.031 82.4313 127.818 82.6308 127.679 82.8274ZM24.5519 84.374C24.3201 84.346 23.8615 84.184 24.0113 84.6585C24.0328 84.6988 24.5532 84.642 24.5519 84.374ZM109.055 82.6048C109.004 82.5498 107.721 82.5337 108.173 83.0273C108.308 83.1761 109.475 83.0925 109.055 82.6048ZM115.704 82.5524C115.597 82.5494 115.163 82.642 115.156 82.7495C115.132 83.1212 115.663 82.9084 115.704 82.5524ZM23.3645 83.9327C23.331 83.8863 22.6349 83.9836 22.7098 84.2024C22.8827 84.6156 23.4663 84.093 23.3645 83.9327ZM56.5897 82.7021C56.6491 82.6842 56.7377 83.1757 56.7586 83.1808C56.8058 83.187 57.905 82.9761 57.4957 83.6173C57.4242 83.7248 55.845 83.512 55.6449 83.4533C55.5531 82.7779 56.2321 83.409 56.3946 83.3361C56.4231 83.3224 56.4305 82.7557 56.5893 82.705C56.5894 82.704 56.5896 82.703 56.5897 82.7021ZM129.436 82.3212C129.478 81.8901 130.758 81.5855 130.751 82.1072C130.312 82.1785 129.874 82.2499 129.436 82.3212ZM128.784 82.2599C128.506 81.9597 129.145 81.8491 129.336 81.9805C129.342 82.2701 128.824 82.3039 128.784 82.2599ZM113.245 80.9841C113.118 81.0914 113.525 81.7129 113.438 81.8365C113.382 81.9134 113.09 81.6828 113.002 81.8807C112.976 81.9435 113.28 82.529 113.365 82.5021C113.485 82.4661 113.36 82.0035 113.492 81.9981C113.93 81.981 114.324 82.3059 114.735 82.2915C114.772 82.2893 114.48 81.9659 114.795 81.9654C114.844 81.9647 115.144 82.4486 115.519 82.37C116.327 80.8432 116.963 82.3191 118.015 81.7564C117.972 81.6145 117.173 81.2451 117.127 81.2317C116.235 80.9972 114.66 80.9955 113.727 81.0076C113.488 81.0101 113.609 81.3285 113.507 81.342C113.426 81.3519 113.513 80.7573 113.245 80.9841ZM24.6689 84.0437C24.5418 83.4536 24.1779 83.8359 23.9207 83.8104C24.0338 84.3427 24.418 83.9174 24.6689 84.0437ZM123.023 81.8905C122.899 81.9153 122.508 81.743 122.479 81.9219C122.441 82.1554 123.003 82.2935 123.023 81.8905ZM62.7461 82.7525C62.7578 82.7361 63.0603 82.7621 63.0722 82.7805C63.351 83.2508 62.4437 83.1706 62.7461 82.7525ZM69.9438 82.7308C70.1721 82.6534 70.4018 82.4639 70.4874 82.9431C70.3398 82.8722 69.9229 83.066 69.9438 82.7308ZM79.8619 82.5333C79.8029 81.9048 80.5006 82.2998 80.6328 82.3538C80.5891 82.6344 79.9045 82.9861 79.8619 82.5333ZM127.6 80.8523C128.019 80.8831 127.916 79.931 128.188 80.3584C128.233 80.4307 128.404 82.4138 127.932 81.677C127.847 81.5446 128.164 81.0678 127.6 80.8523ZM104.494 82.1823C104.593 81.7641 104.929 81.8821 105.155 81.9116C105.109 82.2218 104.653 82.1499 104.494 82.1823ZM22.0689 83.4822C21.8803 82.8979 20.9507 83.3526 21.1909 83.7364C21.2184 83.7865 21.9547 83.4622 22.0689 83.4822ZM51.9545 83.1226C52.3259 82.6524 51.5351 82.5243 51.2985 82.9814C51.409 82.9496 51.9291 83.1536 51.9545 83.1226ZM77.4771 82.2347C77.4944 82.2154 77.8889 82.2528 77.907 82.2753C78.2385 82.7527 77.1225 82.6494 77.4771 82.2347ZM67.5659 82.0111C67.6995 81.6275 68.6401 81.9173 68.8587 82.2948C68.6648 82.8556 67.3982 82.4902 67.5659 82.0111ZM125.878 81.1499C126.178 81.1255 126.464 81.2384 126.742 81.3989C126.689 81.7205 125.913 81.389 125.878 81.1499ZM78.9256 82.1682C78.9469 82.1704 78.9683 82.2063 78.9887 82.2098C78.9672 82.1966 78.9462 82.1815 78.9256 82.1682ZM119.18 81.0304C118.928 80.9078 118.989 81.4946 119.005 81.5124C119.196 81.6997 119.465 81.1689 119.18 81.0304ZM24.3675 83.1769C24.2738 82.6483 23.8632 83.0679 23.6098 82.9467C23.6894 83.3641 24.1838 83.2363 24.3675 83.1769ZM98.7341 81.8216C98.4092 81.252 99.6802 80.562 99.954 80.9279C99.9798 81.2828 98.7851 81.8994 98.7341 81.8216ZM50.7675 82.35C50.7337 81.935 50.207 82.4469 50.3249 82.641C50.3991 82.7645 50.7874 82.6079 50.7675 82.35ZM100.601 81.1592C100.719 81.0303 101.007 81.4356 100.912 81.6872C100.791 82.0097 100.571 81.1961 100.601 81.1592ZM111.402 80.6437C111.348 80.581 110.65 81.0192 110.948 81.4383C111.155 81.7295 111.178 81.1283 111.225 81.1257C111.278 81.1267 112.424 81.8432 111.402 80.6437ZM91.5517 81.5848C91.8153 81.4203 92.1389 81.6002 92.4174 81.5838C92.308 81.8428 91.6716 81.9241 91.5517 81.5848ZM52.8442 82.1984C52.7831 82.0315 51.0044 81.9648 52.0292 82.4624C52.0901 82.4904 53.0481 82.7036 52.8442 82.1984ZM127.6 80.8523C127.547 80.8484 127.486 80.8295 127.414 80.7896C127.485 80.8046 127.546 80.8319 127.6 80.8523ZM122.838 80.8639C122.93 80.5599 122.442 80.4867 122.3 80.65C122.262 81.0203 122.827 80.9064 122.838 80.8639ZM92.4311 81.1615C92.5885 80.9855 92.8833 81.1651 93.0822 81.1415C93.0533 81.4233 92.5054 81.4459 92.4311 81.1615ZM81.1136 81.0474C81.4342 81.2088 81.8251 81.1248 81.825 80.7807C81.8326 80.8343 81.8491 80.8911 81.8758 80.948C81.9027 81.0044 82.2417 80.8382 82.3928 80.9529C83.2911 81.6343 78.9755 81.4248 81.4546 80.4081C81.3408 80.6212 81.2271 80.8343 81.1136 81.0474ZM66.2757 81.2254C66.0848 80.8102 65.5852 81.3445 65.7206 81.5068C65.8143 81.6181 66.4663 81.6435 66.2757 81.2254ZM73.2622 80.8466C73.2059 80.7729 72.7119 81.0754 72.7034 81.2962C72.994 81.5232 73.5179 81.1891 73.2622 80.8466ZM64.8701 80.7615C64.7555 80.7004 64.6239 81.3783 64.6378 81.4075C64.7573 81.6518 65.0676 81.1338 64.8701 80.7615ZM126.704 79.0467C126.531 78.856 125.997 79.3531 125.886 79.8009C125.863 79.715 125.802 79.6035 125.692 79.4702C125.692 79.4702 125.692 79.4702 125.693 79.4702C125.541 79.2923 121.177 79.1641 124.116 79.9768C124.208 80.0029 124.076 79.6046 124.45 79.6693C124.475 79.6741 124.493 80.0007 124.569 80.0154C124.745 80.0472 125.682 80.2382 125.866 79.9723C125.869 80.0328 125.882 80.0903 125.909 80.1428C126.146 80.6105 126.839 79.1937 126.704 79.0467ZM74.2461 80.7685C74.1447 80.6492 73.8334 80.77 73.8064 81.0589C73.964 81.1974 74.4815 81.0467 74.2461 80.7685ZM52.7668 81.0163C52.5598 80.7831 52.0602 81.2364 52.2184 81.4691C52.3146 81.6122 53.0047 81.2841 52.7668 81.0163ZM71.079 80.9813C72.2469 81.3005 71.3556 80.9486 71.5256 80.5224C71.3765 80.6754 71.2276 80.8283 71.079 80.9813ZM132.121 80.056C131.933 79.9615 132.139 79.1237 132.351 79.5734C132.417 79.7162 132.225 80.1073 132.121 80.056ZM140.52 79.6721C140.35 78.9344 141.132 79.358 140.837 79.87C140.823 79.8873 140.531 79.7001 140.52 79.6721ZM134.645 79.4562C134.526 79.9619 134.444 80.0229 134.086 79.9038C134.611 79.7539 134.115 79.3156 134.645 79.4562ZM81.8205 80.7266C81.823 80.7469 81.8249 80.7619 81.825 80.7807C81.8223 80.7622 81.821 80.7447 81.8205 80.7266ZM63.7812 80.9133C63.6249 80.4893 63.2123 80.5286 63.3436 80.9558C63.3561 80.9954 63.7263 81.2298 63.7812 80.9133ZM125.886 79.8009C125.907 79.877 125.898 79.9266 125.866 79.9723C125.864 79.9153 125.871 79.8613 125.886 79.8009ZM65.9665 80.524C65.9575 80.8427 66.5869 80.9547 66.6118 80.9168C66.9624 80.3578 66.2239 80.4999 65.9665 80.524ZM48.635 80.6491C48.6031 80.6829 48.8286 81.5008 48.9514 81.1762C49.0464 80.9244 48.7539 80.5202 48.635 80.6491ZM135.849 79.233C136.046 79.2306 136.324 79.2261 136.381 79.6158C136.248 79.5578 135.849 79.5195 135.849 79.233ZM140.208 79.1405C139.982 79.6028 139.45 79.6093 139.109 79.5386C139.094 78.9345 139.992 79.2857 140.208 79.1405ZM127.242 79.2637C127.226 79.2393 126.729 79.0667 126.803 79.4701C126.911 80.0616 127.385 79.4814 127.242 79.2637ZM49.61 81.0664C49.8206 80.7837 49.3114 79.9374 49.0797 80.6033C48.9663 80.9442 49.5775 81.1137 49.61 81.0664ZM62.4831 80.379C62.195 80.6185 62.928 81.0216 63.0222 80.5969C62.8862 80.5655 62.5853 80.2941 62.4831 80.379ZM72.4166 79.7643C71.4726 78.5619 72.0159 80.7774 72.1754 80.5787C72.1979 80.5504 72.4397 79.7925 72.4166 79.7643ZM19.7408 81.09C19.6158 81.262 20.1072 81.8663 20.1606 81.461C20.1903 81.2074 19.8309 80.9802 19.7408 81.09ZM86.294 80.3037C86.2551 80.3083 86.2166 80.313 86.1785 80.3172C86.2068 80.2967 86.2443 80.2896 86.294 80.3037ZM59.8007 78.796C60.4859 80.5054 60.3933 79.1795 60.45 79.1857C60.5732 79.2019 60.8702 79.6619 61.0928 79.5812C60.84 79.78 60.574 79.979 60.3131 80.1779C60.5377 80.298 62.3276 80.8979 62.3655 80.6179C62.4118 80.2193 61.8482 80.3548 61.8314 80.3201C61.8067 80.2706 61.6976 79.1668 61.6445 79.1258C61.561 79.0602 60.0518 79.066 59.8007 78.796ZM70.5031 79.991C70.652 80.1197 70.7019 80.5569 70.7681 80.4509C70.7906 80.4147 70.7866 79.9969 70.8639 79.8873C70.7435 79.9219 70.6232 79.9565 70.5031 79.991ZM58.6706 80.3662C58.478 79.8593 59.3008 80.0374 59.3291 80.0941C59.4761 80.4374 58.8269 80.7804 58.6706 80.3662ZM65.6476 80.1592C65.6166 80.13 64.9832 79.9826 64.994 80.2657C65.1636 80.4785 66.01 80.5255 65.6476 80.1592ZM70.9614 79.857C71.1823 79.9016 71.608 80.3145 71.5484 79.6863C71.5481 79.6863 71.5478 79.6863 71.5474 79.6863C71.3517 79.7432 71.1563 79.8001 70.9614 79.857ZM50.3349 79.7232C49.9065 78.7293 50.1243 79.9915 50.4936 80.3076C50.5949 79.8557 50.4052 79.8849 50.3349 79.7232ZM49.0113 79.0018C48.8888 78.8239 47.708 79.0446 47.9 79.5711C47.9667 79.7588 48.639 79.269 48.6721 79.3051C48.7211 79.3584 48.5136 79.9492 48.8774 79.8258C48.852 79.6275 49.0522 79.0613 49.0113 79.0018ZM49.9842 79.0883C49.5647 78.3343 49.5022 79.7413 49.8056 79.7392C49.9244 79.7394 50.0442 79.1972 49.9842 79.0883ZM51.6601 79.1755C51.5082 79.0451 51.1088 78.8584 50.8473 79.3311C51.2105 79.3639 51.5762 79.3967 51.9446 79.4295C51.9818 79.1639 51.7927 79.2901 51.6591 79.1755C51.6594 79.1755 51.6597 79.1755 51.6601 79.1755ZM142.612 75.5041C142.281 75.1102 143.028 74.9467 143.061 75.0442C143.159 75.3679 142.76 75.68 142.612 75.5041ZM16.9442 68.3744C16.8484 68.2174 16.7959 67.6955 16.5911 67.9736C16.8092 68.3552 16.995 68.7375 17.2137 69.1191C17.3575 68.2318 17.0427 68.5477 16.9442 68.3744ZM16.1236 65.1594C16.1517 65.1374 15.9709 63.7811 16.3459 64.6815C16.606 65.2894 15.2777 65.9133 15.0238 65.3155C15.2959 65.0298 15.8672 65.3391 16.1236 65.1594ZM13.6524 59.3225C13.6416 59.2142 14.1407 59.045 14.2032 59.1202C14.5174 59.5169 13.749 59.9015 13.6524 59.3225ZM15.2817 59.5492C15.0358 59.29 15.5746 59.109 15.7236 59.258C15.7452 59.5107 15.3207 59.5869 15.2817 59.5492ZM139.038 55.8614C138.766 54.9412 138.564 56.9336 138.955 56.5271C138.974 56.508 139.049 55.9065 139.038 55.8614ZM14.1279 57.941C14.3654 58.2003 13.8431 58.3811 13.6813 58.2324C13.6672 57.9798 14.0794 57.9034 14.1279 57.941ZM138.824 53.663C138.471 53.0031 138.624 55.2328 138.668 55.3221C138.85 55.6747 139.443 54.79 139.564 54.5705C138.662 54.9185 138.99 53.974 138.824 53.663ZM137.258 55.0263C136.943 55.269 137.764 55.7123 137.91 55.088C137.752 55.1201 137.348 54.9561 137.258 55.0263ZM135.314 54.3392C135.142 54.2618 134.63 54.078 134.55 54.4304C134.736 54.3641 135.247 54.7016 135.314 54.3392ZM134.911 53.2929C134.636 52.8198 134.593 54.2108 134.895 53.7922C134.907 53.776 134.921 53.3193 134.911 53.2929ZM133.397 52.8136C133.213 52.2634 133.032 53.6126 133.318 53.6447C133.402 53.6517 133.416 52.8767 133.397 52.8136ZM138.358 51.2686C138.103 51.0349 137.793 52.0037 138.332 52.1017C138.145 52.2518 137.958 52.4019 137.772 52.5519C138.484 53.082 138.413 51.7458 138.616 51.7981C138.899 51.8726 138.893 52.9761 138.841 53.3234C139.063 52.6441 140.045 52.619 140.612 52.4821C140.108 52.2056 139.291 51.7256 138.796 51.5531C138.655 51.5031 138.522 51.8077 138.402 51.7756C138.208 51.7225 138.373 51.2844 138.359 51.2686C138.359 51.2686 138.359 51.2686 138.358 51.2686ZM131.418 52.8235C130.892 52.2051 131.239 53.5521 131.527 53.3066C131.539 53.2879 131.431 52.8386 131.418 52.8235ZM13.3537 53.847C14.0583 54.3979 13.5659 55.157 14.9962 53.9906C14.3959 54.808 14.9693 54.5703 14.8566 54.8975C14.769 55.1563 14.4046 54.9507 14.6285 55.4639C14.3099 54.9071 13.2716 55.0827 13.0014 54.9989C13.0037 54.9988 13.0061 54.9987 13.0087 54.9987C12.9734 54.9862 12.9778 54.8966 12.9897 54.7723C13.0212 54.6475 13.0753 54.4879 13.1062 54.3364C13.1664 54.0334 13.2373 53.7595 13.3537 53.847ZM135.259 50.8038C135.063 49.1659 135.034 51.7707 134.675 50.4161C134.254 52.3972 135.919 50.3979 136.15 52.0625C134.306 51.896 137.391 53.6969 136.068 51.2196C137.141 52.11 136.411 50.9053 136.57 50.5848C136.74 50.2434 137.345 50.6028 137.305 49.9922C137.305 49.9922 137.305 49.9922 137.304 49.9922C136.938 50.0404 136.572 50.0885 136.206 50.1367C136.584 51.4495 135.83 51.0654 135.56 49.9951C135.46 50.2647 135.359 50.5343 135.259 50.8038ZM137.351 52.0106C137.315 51.9809 136.52 52.1774 136.575 52.4412C136.684 52.6084 137.813 52.3894 137.351 52.0106ZM140.856 51.6715C140.569 51.6724 140.123 51.4217 139.974 51.9209C140.26 51.9201 140.707 52.171 140.856 51.6715ZM126.117 51.7983C125.758 52.2118 126.884 52.3152 126.551 51.8372C126.535 51.8147 126.135 51.7789 126.117 51.7983ZM134.434 51.0642C134.055 50.5684 134.254 52.1615 134.523 51.7416C134.539 51.7169 134.451 51.0868 134.434 51.0642ZM13.9102 53.6417C13.9323 53.2501 14.9331 53.5047 15.1113 53.4977C15.0183 53.8631 13.897 54.0902 13.9102 53.6417ZM141.338 50.2016C140.748 48.804 139.999 50.4389 139.914 50.4047C139.829 50.3698 139.952 49.7533 139.933 49.7371C139.888 49.7033 138.992 49.7679 138.949 49.8113C138.919 49.8451 139.094 50.7063 138.913 50.981C139.266 50.485 140.911 50.7683 140.995 50.6714C141.06 50.594 140.549 49.6943 141.337 50.2016C141.338 50.2016 141.338 50.2016 141.338 50.2016ZM139.699 50.2196C139.929 50.5783 139.301 50.6327 139.147 50.5014C138.805 50.2074 139.67 50.1771 139.699 50.2196ZM138.182 49.908C138.109 49.8279 137.459 49.7636 137.41 50.1675C137.725 50.6857 138.348 50.0948 138.182 49.908ZM130.971 50.0697C130.804 50.1239 130.338 49.8212 130.316 50.1738C130.484 50.1198 130.95 50.4223 130.971 50.0697ZM17.261 50.5001C16.9704 50.2111 17.6401 50.0774 17.8141 50.2153C17.8361 50.4498 17.283 50.525 17.261 50.5001ZM134.321 47.6979C134.219 47.5923 132.187 47.8901 131.905 48.0593C132.188 48.3214 134.205 48.3116 134.295 48.1803C134.321 48.141 134.334 47.7146 134.321 47.6979ZM138.716 47.4705C138.895 46.9492 139.025 47.5694 139.049 47.5769C139.28 47.6529 139.757 47.529 139.659 48.03C139.249 47.8344 138.36 48.5057 138.716 47.4705ZM130.792 47.7254C130.105 47.9283 131.437 48.4546 131.256 47.9151C131.244 47.8825 130.863 47.7041 130.792 47.7254ZM134.546 47.5434C134.691 47.1221 136.729 47.4534 137.056 47.4492C136.775 48.2264 136.531 47.6428 136.138 47.6881C136.033 47.7012 136.066 48.0223 136.054 48.023C135.871 48.0406 136.003 47.6672 135.89 47.6632C135.818 47.6617 134.34 48.137 134.546 47.5434ZM138.817 47.1097C138.926 46.8108 140.194 46.6656 140.246 46.7439C140.637 47.3259 138.917 47.2118 138.817 47.1097ZM134.349 46.8591C134.554 45.9576 135.572 46.5442 134.888 47.0022C134.823 47.0439 134.538 46.6587 134.349 46.8591ZM130.852 46.869C130.818 46.843 130.096 46.6744 130.087 46.9604C130.194 47.0699 131.242 47.1536 130.852 46.869ZM131.21 45.8968C131.193 45.9039 131.37 46.4518 131.032 46.3871C131.004 46.381 130.942 45.7625 130.522 45.9956C130.436 46.0436 130.31 46.4553 130.319 46.4807C130.775 47.4458 132.076 45.5643 131.21 45.8968ZM138.833 46.6076C138.761 46.3472 138.914 45.5689 139.069 45.9597C139.135 46.1284 139.023 46.5957 138.833 46.6076ZM128.564 46.6529C128.975 46.176 127.66 46.1072 127.595 46.2286C127.642 46.5211 128.523 46.6995 128.564 46.6529ZM17.8428 46.855C17.8424 46.855 17.8421 46.855 17.8418 46.855C18.1954 46.9546 17.9857 47.3504 18.002 47.3623C18.7766 47.922 18.5419 47.0399 18.6607 46.9328C18.9036 46.7016 18.901 47.7802 19.3068 47.325C18.6166 47.999 19.2637 47.7093 19.2804 48.0927C19.3978 49.6561 18.3441 47.3781 17.9861 47.7135C17.9365 47.7599 18.314 48.2521 18.1891 48.3968C17.7914 48.8653 16.4849 46.4742 17.8428 46.855ZM139.183 45.8896C139.339 45.4274 140.584 45.8554 140.261 46.2389C140.209 46.3004 138.953 46.5632 139.183 45.8896ZM81.3054 46.1648C81.595 45.7616 80.8986 45.3063 80.7774 45.6183C80.717 45.7737 81.1781 46.3418 81.3054 46.1648ZM76.4445 44.551C76.0889 44.6383 75.7443 46.3044 76.1827 46.0388C76.2293 46.0098 76.4896 44.7804 76.4445 44.551ZM99.6798 44.9904C99.3013 44.4037 99.3422 45.5051 99.6123 45.4849C99.7077 45.4779 99.6918 45.0089 99.6798 44.9904ZM85.5844 45.3804C85.5466 45.3426 85.1211 45.4206 85.1413 45.6735C85.3015 45.8226 85.8283 45.6401 85.5844 45.3804ZM99.7942 44.8315C99.579 45.0339 99.9688 45.8243 100.223 45.0409C100.088 45.1071 99.8163 44.8109 99.7942 44.8315ZM133.548 44.4357C133.371 44.8908 132.849 44.7619 132.552 44.8442C132.511 44.2585 133.336 44.5451 133.548 44.4357ZM77.9508 45.1907C77.6242 45.6099 78.3464 45.935 78.2709 45.3902C78.2611 45.3607 77.9635 45.1729 77.9508 45.1907ZM111.594 44.5732C111.356 44.9268 112.136 45.3843 111.914 44.7732C111.903 44.7484 111.607 44.5535 111.594 44.5732ZM114.973 44.7204C114.787 44.6054 114.003 44.6545 114.314 44.9906C114.362 45.0423 114.965 45.0408 114.973 44.7204ZM18.673 46.5105C18.5555 45.9105 19.1585 46.0419 19.2316 46.1457C19.273 46.1887 18.8149 47.2913 18.673 46.5105ZM97.2791 44.9376C97.0887 45.0163 96.5903 44.8817 96.5086 45.1991C96.741 45.1297 97.3529 45.5657 97.2791 44.9376ZM79.4808 45.1599C79.1752 44.511 78.6768 44.5847 78.8159 45.4373C79.3672 45.3699 78.733 44.6702 79.4808 45.1599ZM101.013 44.1063C100.859 44.059 100.755 44.8819 100.773 44.9203C100.946 45.2854 101.171 44.423 101.013 44.1063ZM89.5237 44.9822C89.5084 44.6315 89.0197 44.7995 89.0894 45.0241C89.1121 45.0996 89.5358 45.266 89.5237 44.9822ZM127.109 44.334C126.879 44.0173 127.561 43.6936 127.77 44.0643C127.877 44.6014 127.137 44.3703 127.109 44.334ZM105.268 44.2394C105.282 43.7184 104.517 44.0257 104.828 44.4521C104.905 44.5588 105.263 44.4136 105.268 44.2394ZM112.609 43.4928C112.102 44.1221 114.278 44.5274 113.695 43.763C113.653 43.7085 112.652 43.4396 112.609 43.4928ZM116.148 43.8229C116.058 43.756 116.074 42.0057 116.453 42.6744C116.502 42.7611 116.284 43.2273 116.325 43.3324C116.349 43.3923 117.154 43.6251 117.19 43.5837C117.229 43.5367 117.174 42.9767 117.213 42.9131C117.257 42.8421 117.759 43.3267 118.018 43.328C118.503 43.3294 118.547 42.8619 118.587 42.8597C118.703 42.8547 118.903 43.183 119.138 43.1788C120.32 43.1562 122.138 42.7317 123.088 43.7065C122.248 43.3223 121.454 43.7565 120.623 43.8995C120.851 42.9214 119.41 44.6696 120.251 43.5318C119.86 43.7818 116.444 44.0317 116.149 43.8229C116.149 43.8229 116.148 43.8229 116.148 43.8229ZM75.0318 44.0864C75.2378 43.4851 74.1259 43.6401 74.0455 44.3328C74.1932 44.426 75.0056 44.1547 75.0318 44.0864ZM80.156 42.5352C80.2569 42.4303 80.3326 41.2609 80.8837 41.8433C80.8842 41.8432 80.8847 41.8432 80.8852 41.8432C81.0464 42.0133 80.8714 42.3011 80.9022 42.4019C80.9134 42.4431 81.4174 43.015 81.0093 43.1158C80.3878 43.2704 80.9347 42.2483 80.6019 42.2419C80.5607 42.2417 79.9453 42.8851 79.9832 43.0232C79.9885 43.0393 80.174 42.9022 80.2064 42.9593C80.3282 43.1739 80.2775 43.5395 80.2944 43.5566C80.3489 43.6 81.3334 42.9608 81.4892 43.5007C81.5369 43.6748 79.9157 44.1079 79.845 44.0182C79.8031 43.9616 79.8019 42.9493 79.7578 42.8505C79.7349 42.8013 79.0769 43.1927 78.9894 43.1012C78.9639 43.0748 78.9442 43.0461 78.9298 43.0225C79.0357 43.3337 78.4353 43.3222 78.4475 42.9685C78.4552 42.8295 78.8695 42.9023 78.8848 42.9263C78.8915 42.9365 78.8974 42.9505 78.9028 42.9602C78.8091 42.5802 80.2136 42.5718 79.9003 42.0094C80.299 41.691 79.8598 42.8435 80.156 42.5352ZM82.0811 41.8757C82.0412 41.9829 82.0013 42.0901 81.9615 42.1973C82.6627 41.924 83.5042 42.4214 84.3083 42.4031C84.5142 42.3992 84.2656 41.7525 84.5388 41.9255C84.7577 42.0642 85.0085 42.6637 84.8931 42.8004C84.8648 42.8345 84.4169 42.4492 84.1977 42.4935C83.5504 42.6247 83.725 43.1799 83.6872 43.1957C83.6481 43.2123 83.2242 42.8272 82.9992 42.8488C82.4323 42.9042 82.1793 43.2516 81.4007 42.8178C81.8387 42.4418 81.5804 41.647 82.0811 41.8757ZM108.484 42.6056C108.505 42.2537 108.974 42.5578 109.142 42.5034C109.121 42.856 108.651 42.5511 108.484 42.6056ZM39.4708 43.4195C39.3389 43.9989 40.4078 44.1206 40.1174 43.6463C40.0523 43.5411 39.603 43.421 39.4708 43.4195ZM44.2648 43.6758C44.4029 43.5136 43.8261 43.1096 43.8365 43.5558C43.8398 43.6989 44.2466 43.6969 44.2648 43.6758ZM91.2442 42.2796C91.2706 42.261 91.6632 42.3826 91.676 42.4117C91.9452 43.0194 90.6549 42.6881 91.2442 42.2796ZM50.0699 42.852C49.5782 43.2396 51.0848 43.3741 50.6158 42.9012C50.5919 42.8782 50.0931 42.8332 50.0699 42.852ZM52.149 42.706C52.0306 42.7286 51.5043 42.5511 51.5013 42.7272C51.4959 43.0112 52.0981 43.1935 52.149 42.706ZM101.079 41.9263C101.011 41.2776 101.719 41.7576 101.962 41.6717C102.03 42.3208 101.321 41.8401 101.079 41.9263ZM96.6652 41.5231C99.6084 40.96 98.9789 42.3593 96.4954 41.8427C96.4846 41.4259 96.48 41.5586 96.6652 41.5231ZM100.434 41.5352C100.334 41.9532 99.9982 41.8355 99.7724 41.8061C99.8079 41.516 100.272 41.6128 100.434 41.5352ZM38.1875 42.5522C38.3707 42.0227 39.1925 42.6548 39.052 42.8745C39.0268 42.9219 38.1261 42.8427 38.1875 42.5522ZM91.4795 41.7193C91.3999 41.0887 92.2847 41.3309 92.3551 41.47C92.6369 42.0296 91.5477 41.5786 91.4795 41.7193ZM105.247 41.2995C105.395 40.8019 105.844 41.049 106.131 41.0507C106.007 41.4761 105.49 41.3043 105.247 41.2995ZM103.183 40.9465C103.2 40.9272 103.598 40.9652 103.616 40.9876C103.949 41.4655 102.825 41.3607 103.183 40.9465ZM17.2619 42.1123C17.2757 42.096 17.5836 42.1215 17.5893 42.14C17.8674 42.6097 16.9576 42.5307 17.2619 42.1123Z" fill="#EDE9DC"/>
<path d="M35.3989 56.2499L40.6695 69.8278C40.872 70.3483 41.0961 70.7098 41.3419 70.9123C41.6022 71.1002 41.8336 71.2015 42.036 71.2159V71.6497C41.6022 71.6208 41.0889 71.6063 40.496 71.6063C39.9176 71.5919 39.332 71.5846 38.7391 71.5846C38.074 71.5846 37.445 71.5919 36.8521 71.6063C36.2593 71.6063 35.7893 71.6208 35.4423 71.6497V71.2159C36.1797 71.187 36.6425 71.0641 36.8304 70.8472C37.0329 70.6158 36.9895 70.1314 36.7003 69.394L33.013 59.3082L33.4034 58.7443L30.1066 67.3334C29.7885 68.1287 29.5933 68.7794 29.521 69.2855C29.4631 69.7916 29.4993 70.182 29.6294 70.4568C29.774 70.7315 29.9981 70.9267 30.3018 71.0424C30.6199 71.1436 30.9959 71.2015 31.4297 71.2159V71.6497C30.9525 71.6208 30.497 71.6063 30.0632 71.6063C29.6294 71.5919 29.1884 71.5846 28.7401 71.5846C28.422 71.5846 28.1184 71.5919 27.8292 71.6063C27.5544 71.6063 27.3086 71.6208 27.0917 71.6497V71.2159C27.3954 71.1581 27.7063 70.9629 28.0244 70.6303C28.3425 70.2977 28.6534 69.7338 28.957 68.9385L33.9023 56.2499C34.1337 56.2644 34.3795 56.2716 34.6398 56.2716C34.9145 56.2716 35.1676 56.2644 35.3989 56.2499ZM36.9172 65.403V65.8368H30.4536L30.6705 65.403H36.9172ZM50.7118 60.1324C51.8396 60.1324 52.7723 60.5951 53.5098 61.5206C54.2617 62.4315 54.6376 63.8414 54.6376 65.7501C54.6376 67.2539 54.4063 68.4613 53.9435 69.3723C53.4953 70.2833 52.8952 70.9412 52.1433 71.3461C51.3914 71.7509 50.5672 71.9534 49.6707 71.9534C49.0778 71.9534 48.5283 71.8522 48.0222 71.6497C47.5161 71.4473 47.0823 71.1147 46.7208 70.652L47.0245 70.5435C47.2848 70.8617 47.5884 71.1002 47.9355 71.2593C48.297 71.4184 48.6512 71.4979 48.9983 71.4979C49.7936 71.4979 50.3864 71.0496 50.7768 70.1531C51.1672 69.2566 51.3625 67.8901 51.3625 66.0537C51.3625 64.8102 51.2829 63.8269 51.1239 63.1039C50.9793 62.3665 50.7624 61.8459 50.4732 61.5423C50.184 61.2241 49.8369 61.0651 49.4321 61.0651C48.926 61.0651 48.4633 61.2747 48.0439 61.6941C47.6246 62.099 47.386 62.6701 47.3281 63.4076L47.2197 62.6484C47.48 61.8242 47.921 61.2024 48.5428 60.7831C49.1646 60.3493 49.8875 60.1324 50.7118 60.1324ZM47.3932 54.6883V71.2159C47.0317 71.1581 46.663 71.1581 46.287 71.2159C45.9111 71.2738 45.564 71.375 45.2459 71.5196C44.9278 71.6497 44.6603 71.8088 44.4434 71.9968L44.1181 71.8015C44.1759 71.5991 44.212 71.3967 44.2265 71.1942C44.2554 70.9918 44.2699 70.7894 44.2699 70.5869V57.291C44.2699 56.6404 44.1687 56.1632 43.9662 55.8595C43.7782 55.5414 43.4167 55.3823 42.8817 55.3823V54.9269C43.3445 54.9702 43.7927 54.9919 44.2265 54.9919C44.8194 54.9919 45.3833 54.9702 45.9183 54.9269C46.4533 54.869 46.945 54.7895 47.3932 54.6883ZM62.4446 60.1324C63.5002 60.1324 64.4256 60.3276 65.2209 60.718C66.0162 61.1085 66.638 61.7375 67.0862 62.6051C67.5345 63.4727 67.7586 64.6222 67.7586 66.0537C67.7586 67.4853 67.5345 68.6348 67.0862 69.5024C66.638 70.3556 66.0162 70.9773 65.2209 71.3678C64.4256 71.7582 63.5002 71.9534 62.4446 71.9534C61.418 71.9534 60.4998 71.7582 59.69 71.3678C58.8947 70.9773 58.2657 70.3556 57.803 69.5024C57.3547 68.6348 57.1306 67.4853 57.1306 66.0537C57.1306 64.6222 57.3547 63.4727 57.803 62.6051C58.2657 61.7375 58.8947 61.1085 59.69 60.718C60.4998 60.3276 61.418 60.1324 62.4446 60.1324ZM62.4446 60.5662C61.8662 60.5662 61.3818 61 60.9914 61.8676C60.601 62.7207 60.4058 64.1161 60.4058 66.0537C60.4058 67.9914 60.601 69.3867 60.9914 70.2399C61.3818 71.093 61.8662 71.5196 62.4446 71.5196C63.0375 71.5196 63.5219 71.093 63.8978 70.2399C64.2882 69.3867 64.4835 67.9914 64.4835 66.0537C64.4835 64.1161 64.2882 62.7207 63.8978 61.8676C63.5219 61 63.0375 60.5662 62.4446 60.5662ZM80.7818 60.1975V69.2855C80.7818 69.9362 80.8831 70.4206 81.0855 70.7387C81.2879 71.0424 81.6494 71.1942 82.17 71.1942V71.6497C81.7217 71.6063 81.2735 71.5846 80.8252 71.5846C80.2179 71.5846 79.654 71.6063 79.1334 71.6497C78.6129 71.6931 78.1212 71.7726 77.6585 71.8883V69.9362C77.3115 70.6592 76.8271 71.1798 76.2053 71.4979C75.598 71.8015 74.9184 71.9534 74.1664 71.9534C73.5591 71.9534 73.0675 71.8738 72.6915 71.7148C72.3156 71.5557 72.0191 71.3533 71.8022 71.1075C71.5564 70.8327 71.3829 70.4712 71.2817 70.023C71.1805 69.5747 71.1299 68.9963 71.1299 68.2878V62.8003C71.1299 62.1496 71.0286 61.6724 70.8262 61.3687C70.6382 61.0506 70.2767 60.8916 69.7417 60.8916V60.4361C70.2044 60.4795 70.6527 60.5011 71.0865 60.5011C71.6938 60.5011 72.2577 60.4795 72.7783 60.4361C73.3133 60.3782 73.8049 60.2987 74.2532 60.1975V69.1771C74.2532 69.5386 74.2821 69.8567 74.34 70.1314C74.4123 70.4062 74.5424 70.6231 74.7304 70.7821C74.9184 70.9267 75.1931 70.999 75.5546 70.999C75.945 70.999 76.292 70.8906 76.5957 70.6737C76.9138 70.4568 77.1669 70.1604 77.3548 69.7844C77.5573 69.394 77.6585 68.9602 77.6585 68.483V62.8003C77.6585 62.1496 77.5573 61.6724 77.3548 61.3687C77.1669 61.0506 76.8054 60.8916 76.2704 60.8916V60.4361C76.7331 60.4795 77.1813 60.5011 77.6151 60.5011C78.2224 60.5011 78.7864 60.4795 79.3069 60.4361C79.8419 60.3782 80.3336 60.2987 80.7818 60.1975ZM88.4046 56.8789V60.4361H90.964V60.8699H88.4046V69.6326C88.4046 70.0664 88.4842 70.3772 88.6432 70.5652C88.8023 70.7387 89.0409 70.8255 89.359 70.8255C89.6193 70.8255 89.8795 70.7315 90.1398 70.5435C90.4001 70.3411 90.6314 70.0013 90.8339 69.5241L91.2026 69.7193C90.9713 70.37 90.617 70.905 90.1398 71.3244C89.6771 71.7437 89.0409 71.9534 88.2311 71.9534C87.7539 71.9534 87.3346 71.8883 86.9731 71.7582C86.6116 71.6425 86.3079 71.4617 86.0621 71.2159C85.744 70.8978 85.5343 70.5074 85.4331 70.0447C85.3319 69.5675 85.2813 68.9529 85.2813 68.201V60.8699H83.4593V60.4361H85.2813V57.573C85.8886 57.573 86.4453 57.5224 86.9514 57.4212C87.472 57.3055 87.9564 57.1248 88.4046 56.8789ZM117.146 56.2933V56.7271C116.684 56.7416 116.337 56.7994 116.105 56.9006C115.874 56.9874 115.715 57.1609 115.628 57.4212C115.556 57.667 115.52 58.0574 115.52 58.5924V69.3506C115.52 69.8712 115.556 70.2616 115.628 70.5218C115.715 70.7821 115.874 70.9556 116.105 71.0424C116.337 71.1292 116.684 71.187 117.146 71.2159V71.6497C116.741 71.6208 116.228 71.6063 115.606 71.6063C114.999 71.5919 114.377 71.5846 113.741 71.5846C113.047 71.5846 112.396 71.5919 111.789 71.6063C111.182 71.6063 110.69 71.6208 110.314 71.6497V71.2159C110.806 71.187 111.174 71.1292 111.42 71.0424C111.681 70.9556 111.854 70.7821 111.941 70.5218C112.028 70.2616 112.071 69.8712 112.071 69.3506V57.6164H112.223L106.844 71.6714H106.497L100.64 57.7032V68.0926C100.64 68.8879 100.684 69.5024 100.771 69.9362C100.857 70.3556 101.045 70.6592 101.334 70.8472C101.638 71.0207 102.108 71.1436 102.744 71.2159V71.6497C102.47 71.6208 102.108 71.6063 101.66 71.6063C101.212 71.5919 100.792 71.5846 100.402 71.5846C100.069 71.5846 99.7294 71.5919 99.3824 71.6063C99.0354 71.6063 98.7462 71.6208 98.5148 71.6497V71.2159C98.9775 71.1436 99.3246 71.0207 99.5559 70.8472C99.7873 70.6737 99.9391 70.3917 100.011 70.0013C100.098 69.5964 100.142 69.0469 100.142 68.3529V58.5924C100.142 58.0574 100.098 57.667 100.011 57.4212C99.9391 57.1609 99.78 56.9874 99.5342 56.9006C99.3029 56.7994 98.9631 56.7416 98.5148 56.7271V56.2933C98.7462 56.3078 99.0354 56.3222 99.3824 56.3367C99.7294 56.3512 100.069 56.3584 100.402 56.3584C101.024 56.3584 101.631 56.3512 102.224 56.3367C102.831 56.3222 103.366 56.3078 103.829 56.2933L108.384 67.2901L107.841 67.7889L112.201 56.3584C112.447 56.3584 112.7 56.3584 112.96 56.3584C113.221 56.3584 113.481 56.3584 113.741 56.3584C114.377 56.3584 114.999 56.3512 115.606 56.3367C116.228 56.3222 116.741 56.3078 117.146 56.2933ZM124.439 60.1324C125.711 60.1324 126.709 60.5084 127.432 61.2603C128.155 62.0122 128.516 63.2413 128.516 64.9476H121.38L121.337 64.5355H125.783C125.798 63.8269 125.754 63.1762 125.653 62.5834C125.552 61.9761 125.393 61.4916 125.176 61.1302C124.959 60.7687 124.67 60.5879 124.308 60.5879C123.802 60.5879 123.369 60.906 123.007 61.5423C122.66 62.1785 122.45 63.2341 122.378 64.709L122.443 64.8391C122.429 65.0126 122.414 65.1934 122.4 65.3814C122.4 65.5693 122.4 65.7645 122.4 65.967C122.4 66.9647 122.537 67.7745 122.812 68.3962C123.101 69.018 123.463 69.4735 123.896 69.7627C124.33 70.0374 124.771 70.1748 125.219 70.1748C125.523 70.1748 125.834 70.1314 126.152 70.0447C126.485 69.9435 126.817 69.7699 127.15 69.5241C127.482 69.2638 127.793 68.9023 128.082 68.4396L128.473 68.5698C128.299 69.1192 128.025 69.6543 127.649 70.1748C127.273 70.6954 126.796 71.1219 126.217 71.4545C125.639 71.7871 124.945 71.9534 124.135 71.9534C123.152 71.9534 122.284 71.7437 121.532 71.3244C120.78 70.905 120.187 70.2688 119.754 69.4157C119.334 68.5625 119.125 67.478 119.125 66.1622C119.125 64.8174 119.349 63.6968 119.797 62.8003C120.26 61.9038 120.889 61.2386 121.684 60.8048C122.494 60.3565 123.412 60.1324 124.439 60.1324Z" fill="#19254F"/>
<defs>
<linearGradient id="paint0_linear_6111_86858" x1="76.2212" y1="-5.29292" x2="76.2556" y2="7.84537" gradientUnits="userSpaceOnUse">
<stop stop-color="#FDF9F3"/>
<stop offset="1" stop-color="#C2B8A6"/>
</linearGradient>
<linearGradient id="paint1_linear_6111_86858" x1="75.5223" y1="-3.96553" x2="75.5673" y2="13.2273" gradientUnits="userSpaceOnUse">
<stop stop-color="#FDF9F3"/>
<stop offset="1" stop-color="#C2B8A6"/>
</linearGradient>
<linearGradient id="paint2_linear_6111_86858" x1="76.6928" y1="-3.9686" x2="76.7681" y2="24.8031" gradientUnits="userSpaceOnUse">
<stop stop-color="#FDF9F3"/>
<stop offset="1" stop-color="#C2B8A6"/>
</linearGradient>
<linearGradient id="paint3_linear_6111_86858" x1="71.8469" y1="-18.5715" x2="78.1531" y2="128.703" gradientUnits="userSpaceOnUse">
<stop stop-color="#FDF9F3"/>
<stop offset="1" stop-color="#C2B8A6"/>
</linearGradient>
<linearGradient id="paint4_linear_6111_86858" x1="76.8281" y1="129.629" x2="76.8281" y2="393.487" gradientUnits="userSpaceOnUse">
<stop stop-color="#FDF9F3"/>
<stop offset="1" stop-color="#C2B8A6"/>
</linearGradient>
<linearGradient id="paint5_linear_6111_86858" x1="76.7899" y1="107.493" x2="76.8354" y2="124.881" gradientUnits="userSpaceOnUse">
<stop stop-color="#FDF9F3"/>
<stop offset="1" stop-color="#9C9995"/>
</linearGradient>
</defs>
</svg>
