<svg width="60" height="60" viewBox="0 0 60 60" fill="none" xmlns="http://www.w3.org/2000/svg">
<rect width="60" height="60" rx="30" fill="#F4EFE0"/>
<path d="M32.1385 30.0148L46.0637 16.1367C46.6454 15.5495 46.6454 14.5982 46.0637 14.0109C45.4922 13.4132 44.5484 13.3952 43.955 13.9708L30.0298 27.8488L16.2837 13.9708C16.0019 13.6703 15.6098 13.5 15.1995 13.5C14.7893 13.5 14.3972 13.6703 14.1154 13.9708C13.5996 14.5382 13.5996 15.4089 14.1154 15.9763L27.8615 29.8343L13.9363 43.6922C13.3546 44.2795 13.3546 45.2308 13.9363 45.8181C14.2133 46.1041 14.5942 46.2635 14.9907 46.2593C15.3948 46.2923 15.7954 46.1625 16.1047 45.8983L30.0298 32.0203L43.955 46.0587C44.232 46.3447 44.6129 46.5041 45.0093 46.4999C45.4053 46.5018 45.7854 46.3428 46.0637 46.0587C46.6454 45.4715 46.6454 44.5201 46.0637 43.9329L32.1385 30.0148Z" fill="#19254F"/>
</svg>
