<svg width="39" height="169" viewBox="0 0 39 169" fill="none" xmlns="http://www.w3.org/2000/svg">
<path d="M38.4068 4.79424V168.863H32.4022L5.9884 166.002V0.0192871H32.4022L36.9178 2.16512C37.8241 2.59042 38.4068 3.63434 38.4068 4.79424Z" fill="#5E4D4A"/>
<path d="M3.20463 0H32.4184V168.883H0V3.82772C0 1.72055 1.44048 0 3.20463 0Z" fill="#6E5C58"/>
<g style="mix-blend-mode:overlay" opacity="0.5">
<path d="M31.2531 0H28.9225V168.883H31.2531V0Z" fill="white"/>
</g>
<path d="M32.4184 6.57288H0V11.1158H32.4184V6.57288Z" fill="#FFF1DA"/>
<path d="M38.4068 9.43397V13.977L32.4022 11.1158V6.57288L38.4068 9.43397Z" fill="#E5D5BD"/>
<path d="M32.4184 16.0647H0V20.6077H32.4184V16.0647Z" fill="#FFF1DA"/>
<path d="M38.4068 18.9258V23.4881L32.4022 20.6077V16.0647L38.4068 18.9258Z" fill="#E5D5BD"/>
</svg>
