<svg width="36" height="156" viewBox="0 0 36 156" fill="none" xmlns="http://www.w3.org/2000/svg">
<path d="M35.4151 4.40116V155.626H29.8806L5.53455 152.989V0H29.8806L34.0427 1.97787C34.8781 2.36988 35.4151 3.33205 35.4151 4.40116Z" fill="#CC6916"/>
<path d="M2.95376 0H29.8806V155.662H0V3.52807C0 1.58586 1.32771 0 2.95376 0Z" fill="#FC891F"/>
<g style="mix-blend-mode:overlay" opacity="0.2">
<path d="M28.8214 0H26.6732V155.662H28.8214V0Z" fill="white"/>
</g>
<path d="M29.8955 6.05835H0.0148926V10.2456H29.8955V6.05835Z" fill="#FFF1DA"/>
<path d="M35.4151 8.6954V12.8827L29.8806 10.2456V6.04047L35.4151 8.6954Z" fill="#E5D5BD"/>
<path d="M29.8955 14.8071H0.0148926V18.9944H29.8955V14.8071Z" fill="#FFF1DA"/>
<path d="M35.4151 17.4442V21.6316L29.8806 18.9944V14.8071L35.4151 17.4442Z" fill="#E5D5BD"/>
</svg>
