<svg width="60" height="60" viewBox="0 0 60 60" fill="none" xmlns="http://www.w3.org/2000/svg">
<rect width="60" height="60" rx="30" fill="#F4EFE0"/>
<path d="M28.0743 43.7868C28.337 44.0347 28.6848 44.1725 29.046 44.1718C29.4059 44.1749 29.751 44.0289 29.9993 43.7684C30.2614 43.5131 30.4092 43.1627 30.4092 42.7968C30.4092 42.4309 30.2614 42.0805 29.9993 41.8251L19.5492 31.375H43.7864C44.5458 31.375 45.1614 30.7594 45.1614 30C45.1614 29.2406 44.5458 28.625 43.7864 28.625H19.5452L30.0177 18.1201C30.2797 17.8648 30.4275 17.5144 30.4275 17.1484C30.4275 16.7825 30.2797 16.4321 30.0177 16.1768C29.4808 15.6406 28.6112 15.6406 28.0743 16.1768L15.241 29.0101C14.7048 29.5469 14.7048 30.4166 15.241 30.9534L28.0743 43.7868Z" fill="#19254F"/>
</svg>
