<svg width="670" height="661" viewBox="0 0 670 661" fill="none" xmlns="http://www.w3.org/2000/svg">
<path d="M80.3679 18.4582L68.202 30.5784C68.202 30.5784 96.8831 265.132 6.56322 539.931L61.9906 599.185C61.9906 599.185 392.549 578.241 617.426 571.844L80.3679 18.4582Z" fill="#518537"/>
<path d="M617.494 571.823C617.494 571.823 285.458 559.17 121.051 555.378L60.7557 505.324C100.062 302.633 80.3578 18.4073 80.3578 18.4073L626.966 66.946C626.966 66.946 608.286 426.88 617.494 571.823Z" fill="#D6EFCA"/>
<path d="M121.007 555.596L101.411 479.846L60.6917 505.611L121.007 555.596Z" fill="#B1E099"/>
<path d="M617.315 571.784C615.485 542.694 614.712 504.88 614.794 463.018C561.572 496.832 509.255 531.189 458.039 565.918C548.551 569.146 617.315 571.784 617.315 571.784Z" fill="#E2F7D7"/>
<path d="M101.396 479.785L120.96 555.559C120.96 555.559 545.197 574.961 617.247 571.954C617.247 571.954 287.43 557.878 125.873 549.526L101.377 479.855L101.396 479.785Z" fill="#EEFFE6"/>
<g style="mix-blend-mode:multiply">
<path d="M373.827 23.9439C388.221 36.8946 388.496 60.0132 374.498 75.6187C360.5 91.2242 332.848 88.2982 318.505 75.4364C304.161 62.5746 308.462 44.5137 322.479 28.8381C336.476 13.2326 359.502 11.0121 373.896 23.9627L373.827 23.9439Z" fill="#E2B3B8"/>
</g>
<path d="M373.827 23.9396C388.221 36.8898 390.948 57.2888 379.869 69.5497C368.861 81.8295 348.289 81.331 333.894 68.3807C319.499 55.4305 316.773 35.0315 327.851 22.7706C338.93 10.5096 359.432 10.9893 373.827 23.9396Z" fill="#D35C48"/>
<path d="M373.827 23.9396C385.866 34.7557 388.011 51.9959 378.595 62.5268C369.179 73.0577 351.785 72.7376 339.746 61.9215C327.707 51.1054 325.562 33.8651 334.978 23.3342C344.375 12.8734 361.788 13.1235 373.827 23.9396C359.432 10.9893 338.86 10.4908 327.851 22.7705C316.843 35.0503 319.551 55.5193 333.894 68.3807C348.237 81.2422 368.861 81.8295 379.869 69.5497C390.878 57.27 388.17 36.801 373.827 23.9396Z" fill="#C64C3C"/>
<path d="M350.674 34.8299C347.608 40.6877 342.037 43.8455 338.29 41.8627C334.543 39.8799 333.996 33.5018 336.992 27.6251C340.058 21.7672 345.629 18.6095 349.376 20.5923C353.123 22.575 353.67 28.9532 350.674 34.8299Z" fill="#FFA792"/>
</svg>
