<svg width="670" height="661" viewBox="0 0 670 661" fill="none" xmlns="http://www.w3.org/2000/svg">
<path d="M80.3679 18.4583L68.202 30.5785C68.202 30.5785 96.8831 265.132 6.56322 539.931L61.9906 599.185C61.9906 599.185 392.549 578.241 617.426 571.844L80.3679 18.4583Z" fill="#349CAA"/>
<path d="M617.494 571.823C617.494 571.823 285.458 559.17 121.051 555.379L60.7557 505.324C100.062 302.634 80.3578 18.4076 80.3578 18.4076L626.966 66.9463C626.966 66.9463 608.286 426.88 617.494 571.823Z" fill="#CAEBEF"/>
<path d="M121.007 555.596L101.411 479.846L60.6917 505.611L121.007 555.596Z" fill="#7ABAC3"/>
<path d="M617.315 571.785C615.485 542.694 614.712 504.88 614.794 463.018C561.572 496.832 509.255 531.19 458.039 565.919C548.551 569.146 617.315 571.785 617.315 571.785Z" fill="#D7F3F7"/>
<path d="M101.396 479.786L120.96 555.559C120.96 555.559 545.197 574.961 617.247 571.954C617.247 571.954 287.43 557.878 125.873 549.526L101.377 479.856L101.396 479.786Z" fill="#E6FCFF"/>
<g style="mix-blend-mode:multiply">
<path d="M373.827 23.9443C388.221 36.895 388.496 60.0136 374.498 75.6191C360.5 91.2246 332.848 88.2986 318.505 75.4368C304.161 62.575 308.462 44.514 322.479 28.8385C336.476 13.233 359.502 11.0125 373.896 23.9631L373.827 23.9443Z" fill="#E2B3B8"/>
</g>
<path d="M373.827 23.9399C388.221 36.8902 390.948 57.2891 379.869 69.5501C368.861 81.8299 348.289 81.3314 333.894 68.3811C319.499 55.4308 316.773 35.0319 327.851 22.7709C338.93 10.51 359.432 10.9897 373.827 23.9399Z" fill="#D35C48"/>
<path d="M373.827 23.9399C385.866 34.756 388.011 51.9963 378.595 62.5272C369.179 73.0581 351.785 72.7379 339.746 61.9218C327.707 51.1057 325.562 33.8655 334.978 23.3346C344.375 12.8737 361.788 13.1238 373.827 23.9399C359.432 10.9897 338.86 10.4911 327.851 22.7709C316.843 35.0507 319.551 55.5197 333.894 68.3811C348.237 81.2425 368.861 81.8299 379.869 69.5501C390.878 57.2703 388.17 36.8014 373.827 23.9399Z" fill="#C64C3C"/>
<path d="M350.674 34.8301C347.608 40.688 342.037 43.8458 338.29 41.863C334.543 39.8802 333.996 33.502 336.992 27.6254C340.058 21.7675 345.629 18.6097 349.376 20.5925C353.123 22.5753 353.67 28.9534 350.674 34.8301Z" fill="#FFA792"/>
</svg>
